<svg xmlns="http://www.w3.org/2000/svg" width="384.734" height="54.172" style="width:384.734375px;height:54.171875px;background:0 0" font-family="Asana-Math,Asana"><path d="M4.992 33.578c.952 0 2.907-1.241 3.638-2.312.697-1.037 1.275-2.907 1.275-4.182 0-1.14-.391-1.887-1.003-1.887-.714 0-1.615.442-2.499 1.24-.697.596-1.037 1.038-1.649 2.04l.408-2.022a4.57 4.57 0 00.085-.748c0-.323-.136-.51-.374-.51-.357 0-1.003.357-2.261 1.258l-.476.34.119.34.544-.357c.476-.306.663-.391.816-.391.17 0 .289.153.289.39 0 .137-.034.477-.068.647l-.986 5.83c-.17 1.02-.493 2.568-.833 4.098l-.136.629.119.102a7.105 7.105 0 011.241-.29l.714-4.453c.357.119.731.238 1.037.238zm-.561-2.992c.374-2.176 2.193-4.403 3.604-4.403.442 0 .646.374.646 1.156 0 1.377-.68 3.4-1.581 4.692-.34.493-.884.748-1.581.748-.527 0-.952-.12-1.394-.391zm6.341.22c0 1.803.765 2.772 2.176 2.772.935 0 1.955-.442 2.72-1.156 1.054-1.003 1.802-2.941 1.802-4.658 0-1.598-.85-2.567-2.261-2.567-1.768 0-4.437 1.7-4.437 5.61zm3.808-4.963c1.037 0 1.598.765 1.598 2.193 0 1.632-.527 3.434-1.275 4.335-.306.357-.748.56-1.275.56-.986 0-1.564-.764-1.564-2.107 0-1.921.663-4.012 1.496-4.692.221-.187.612-.29 1.02-.29zm3.961 5.032a15.07 15.07 0 01-.374 2.244c.646.306 1.224.459 1.819.459.833 0 1.615-.306 2.482-.986.867-.68 1.224-1.31 1.224-2.16 0-.917-.544-1.41-1.802-1.648l-.731-.136c-1.02-.187-1.343-.476-1.343-1.173 0-.901.765-1.598 1.734-1.598.697 0 1.343.306 1.615.765v.935h.391c.068-.595.136-1.054.323-1.921-.663-.323-1.139-.46-1.7-.46-.884 0-1.921.51-2.737 1.327-.442.459-.629.884-.629 1.496 0 .952.527 1.496 1.649 1.717l1.071.204c.748.136 1.02.442 1.02 1.105 0 1.105-.782 1.853-1.989 1.853a2.366 2.366 0 01-1.598-.595v-1.428z" stroke="#E2E2E2" stroke-width=".136" fill="#E2E2E2"/><path d="M29.23 31.2h-.19l.25-1.333c.19-1.023.524-1.476 1.071-1.476.357 0 .678.179.857.464l.119-.047c.06-.19.178-.56.274-.797l.059-.179a2.474 2.474 0 00-.833-.155c-.13 0-.321.036-.416.084-.286.13-1.262.856-1.536 1.142-.261.262-.404.619-.535 1.297l-.179.94a8.99 8.99 0 01-1.023.44l-.06.262h.964l-.107.667c-.357 2.32-.797 4.534-1.059 5.355-.214.702-.571 1.07-1 1.07-.273 0-.404-.083-.618-.344l-.167.047c-.047.274-.214.845-.273.952.107.06.285.095.416.095.488 0 1.13-.368 1.595-.928.845-1 1.083-2.142 2.082-6.914h1.238c.047-.226.13-.5.202-.666l-.048-.083c-.345.083-.333.107-1.082.107z" stroke="#E2E2E2" stroke-width=".095" fill="#E2E2E2"/><path d="M48.05 27.492v-1.003h-9.164v1.003zm0 3.62V30.11h-9.164v1.003zm9.176 2.466c.952 0 2.907-1.241 3.638-2.312.697-1.037 1.275-2.907 1.275-4.182 0-1.14-.39-1.887-1.003-1.887-.714 0-1.615.442-2.499 1.24-.697.596-1.037 1.038-1.649 2.04l.408-2.022a4.57 4.57 0 00.085-.748c0-.323-.136-.51-.374-.51-.357 0-1.003.357-2.26 1.258l-.477.34.12.34.543-.357c.476-.306.663-.391.816-.391.17 0 .29.153.29.39 0 .137-.035.477-.069.647l-.986 5.83c-.17 1.02-.493 2.568-.833 4.098l-.136.629.12.102a7.105 7.105 0 011.24-.29l.714-4.453c.357.119.731.238 1.037.238zm-.56-2.992c.373-2.176 2.192-4.403 3.603-4.403.442 0 .646.374.646 1.156 0 1.377-.68 3.4-1.58 4.692-.34.493-.885.748-1.582.748-.527 0-.952-.12-1.394-.391zm6.34.22c0 1.803.765 2.772 2.176 2.772.935 0 1.955-.442 2.72-1.156 1.054-1.003 1.802-2.941 1.802-4.658 0-1.598-.85-2.567-2.26-2.567-1.769 0-4.438 1.7-4.438 5.61zm3.808-4.963c1.037 0 1.598.765 1.598 2.193 0 1.632-.527 3.434-1.275 4.335-.306.357-.748.56-1.275.56-.986 0-1.564-.764-1.564-2.107 0-1.921.663-4.012 1.496-4.692.221-.187.612-.29 1.02-.29zm3.961 5.032a15.07 15.07 0 01-.374 2.244c.646.306 1.224.459 1.82.459.832 0 1.614-.306 2.481-.986.867-.68 1.224-1.31 1.224-2.16 0-.917-.544-1.41-1.802-1.648l-.73-.136c-1.02-.187-1.344-.476-1.344-1.173 0-.901.765-1.598 1.734-1.598.697 0 1.343.306 1.615.765v.935h.391c.068-.595.136-1.054.323-1.921-.663-.323-1.139-.46-1.7-.46-.884 0-1.92.51-2.737 1.327-.442.459-.629.884-.629 1.496 0 .952.527 1.496 1.65 1.717l1.07.204c.748.136 1.02.442 1.02 1.105 0 1.105-.782 1.853-1.989 1.853a2.366 2.366 0 01-1.598-.595v-1.428z" stroke="#E2E2E2" stroke-width=".136" fill="#E2E2E2"/><path d="M82 28.713h.87c.927 0 1.356.06 1.391.202.036.095.06.321.048.44l-.048.762h.334l.32-1.952-1.082.012c-1.047.012-1.856.024-2.273.024-.44 0-1.202-.012-2.225-.024l-1.13-.012-.215 1.952h.345l.179-.714c.06-.262.142-.452.214-.536.071-.083.523-.154.964-.154h1.333L80 34.913c-.19 1.082-.214 1.118-.69 1.154l-.607.036-.048.333.679-.012c.476-.012.82-.024 1.011-.024.226 0 .595.012 1.06.024l.523.012.036-.333-.702-.036c-.31-.012-.429-.107-.429-.357 0-.107.012-.19.048-.417zm5.748-.512c-1.844 0-2.785 1.464-2.785 4.343 0 1.393.25 2.595.667 3.178a2.206 2.206 0 001.82.916c1.797 0 2.702-1.547 2.702-4.593 0-2.607-.774-3.844-2.404-3.844zm-.214.416c1.154 0 1.618 1.167 1.618 4.023 0 2.534-.452 3.581-1.547 3.581-1.154 0-1.642-1.201-1.642-4.105 0-2.51.44-3.499 1.57-3.499z" stroke="#E2E2E2" stroke-width=".095" fill="#E2E2E2"/><path d="M105.237 29.294V28.29h-4.08v-4.046h-1.003v4.046h-4.08v1.003h4.08v4.097h1.003v-4.097zm6.963-.425c0-4.42 1.65-6.222 2.636-7.378l-.323-.442c-.97.867-3.774 3.128-3.774 7.82 0 1.819.425 3.536 1.24 5.066.596 1.139 1.14 1.802 2.534 3.11l.323-.356c-.782-.97-2.635-3.043-2.635-7.82zm8.445 2.89l-1.207-8.976c-.034-.374.034-.63.714-.646l.714-.034v-.476l-.697.017c-.629.017-1.105.034-1.411.034-.306 0-.782-.017-1.411-.034l-.697-.017v.476l.425.034c.748.05.884.187 1.003.816l1.496 10.574h.833l6.426-10.523c.425-.68.561-.8 1.054-.867l.306-.034v-.476l-.51.017c-.459.017-.85.034-1.122.034-.17 0-.629-.017-1.326-.034l-.782-.017v.476l.442.034c.646.05.969.22.969.544 0 .187-.068.374-.272.714z" stroke="#E2E2E2" stroke-width=".136" fill="#E2E2E2"/><path d="M132.782 28.713h.868c.929 0 1.357.06 1.393.202.035.095.06.321.047.44l-.047.762h.333l.321-1.952-1.083.012c-1.047.012-1.856.024-2.273.024-.44 0-1.202-.012-2.225-.024l-1.13-.012-.215 1.952h.345l.179-.714c.06-.262.143-.452.214-.536.072-.083.524-.154.964-.154h1.333l-1.024 6.2c-.19 1.082-.214 1.118-.69 1.154l-.607.036-.047.333.678-.012c.476-.012.821-.024 1.012-.024.226 0 .595.012 1.059.024l.523.012.036-.333-.702-.036c-.31-.012-.429-.107-.429-.357 0-.107.012-.19.048-.417z" stroke="#E2E2E2" stroke-width=".095" fill="#E2E2E2"/><path d="M137.289 21.049l-.323.442c.935 1.088 2.635 2.958 2.635 7.378 0 4.692-1.768 6.749-2.635 7.82l.323.357c.9-.85 3.774-3.264 3.774-8.16 0-4.71-2.805-6.97-3.774-7.837zm14.25-1.862c.952 0 2.907-1.241 3.638-2.312.697-1.037 1.275-2.907 1.275-4.182 0-1.139-.391-1.887-1.003-1.887-.714 0-1.615.442-2.5 1.241-.696.595-1.036 1.037-1.648 2.04l.408-2.023a4.57 4.57 0 00.085-.748c0-.323-.136-.51-.374-.51-.357 0-1.003.357-2.261 1.258l-.476.34.119.34.544-.357c.476-.306.663-.391.816-.391.17 0 .289.153.289.391 0 .136-.034.476-.068.646l-.986 5.831c-.17 1.02-.493 2.567-.833 4.097l-.136.629.119.102a7.105 7.105 0 011.24-.289l.715-4.454c.357.119.73.238 1.037.238zm-.561-2.992c.374-2.176 2.193-4.403 3.604-4.403.442 0 .646.374.646 1.156 0 1.377-.68 3.4-1.581 4.692-.34.493-.884.748-1.581.748-.527 0-.952-.119-1.394-.391zm6.34.221c0 1.802.766 2.771 2.177 2.771.935 0 1.955-.442 2.72-1.156 1.054-1.003 1.802-2.941 1.802-4.658 0-1.598-.85-2.567-2.261-2.567-1.768 0-4.437 1.7-4.437 5.61zm3.809-4.964c1.037 0 1.598.765 1.598 2.193 0 1.632-.527 3.434-1.275 4.335-.306.357-.748.561-1.275.561-.986 0-1.564-.765-1.564-2.108 0-1.921.663-4.012 1.496-4.692.22-.187.612-.289 1.02-.289zm3.96 5.032a15.07 15.07 0 01-.373 2.244c.646.306 1.224.459 1.819.459.833 0 1.615-.306 2.482-.986.867-.68 1.224-1.309 1.224-2.159 0-.918-.544-1.411-1.802-1.649l-.731-.136c-1.02-.187-1.343-.476-1.343-1.173 0-.901.765-1.598 1.734-1.598.697 0 1.343.306 1.615.765v.935h.39c.069-.595.137-1.054.324-1.921-.663-.323-1.14-.459-1.7-.459-.884 0-1.921.51-2.737 1.326-.442.459-.63.884-.63 1.496 0 .952.528 1.496 1.65 1.717l1.07.204c.749.136 1.02.442 1.02 1.105 0 1.105-.781 1.853-1.988 1.853a2.366 2.366 0 01-1.598-.595v-1.428z" stroke="#E2E2E2" stroke-width=".136" fill="#E2E2E2"/><path d="M172.957 16.404c0 1.012.452 1.571 1.452 1.81l1.13.273c.643.155.964.571.964 1.25 0 1.13-.845 1.915-2.07 1.915-.643 0-1.095-.142-1.619-.511v-1.178h-.357c-.071.654-.154 1.19-.285 1.808a4.06 4.06 0 001.844.453c1.845 0 3.427-1.393 3.427-3 0-.94-.511-1.44-1.713-1.7l-.774-.168c-.785-.166-1.142-.606-1.142-1.392 0-1.035.797-1.785 1.892-1.785.583 0 .976.155 1.333.536v.904h.357c.047-.643.13-1.095.297-1.606a3.156 3.156 0 00-1.57-.405c-1.476 0-3.166 1.095-3.166 2.796zm9.96-2.082h.87c.927 0 1.356.06 1.391.202.036.095.06.322.048.44l-.048.762h.334l.32-1.951-1.082.011c-1.047.012-1.856.024-2.273.024-.44 0-1.202-.012-2.225-.024l-1.13-.011-.215 1.951h.345l.179-.714c.06-.262.142-.452.214-.535.071-.084.523-.155.964-.155h1.333l-1.024 6.2c-.19 1.083-.214 1.118-.69 1.154l-.607.036-.048.333.679-.012c.476-.012.82-.024 1.011-.024.226 0 .595.012 1.06.024l.523.012.036-.333-.702-.036c-.31-.012-.429-.107-.429-.357 0-.107.012-.19.048-.416zm5.748-.512c-1.844 0-2.785 1.464-2.785 4.344 0 1.392.25 2.594.667 3.177a2.206 2.206 0 001.82.916c1.797 0 2.702-1.547 2.702-4.593 0-2.606-.774-3.844-2.404-3.844zm-.214.417c1.154 0 1.618 1.166 1.618 4.022 0 2.535-.452 3.582-1.547 3.582-1.154 0-1.642-1.202-1.642-4.106 0-2.51.44-3.498 1.57-3.498z" stroke="#E2E2E2" stroke-width=".095" fill="#E2E2E2"/><path d="M145.602 38.774c0 1.445.646 2.244 2.074 2.584l1.615.391c.918.221 1.377.816 1.377 1.785 0 1.615-1.207 2.737-2.958 2.737-.918 0-1.564-.204-2.312-.73v-1.684h-.51c-.102.935-.221 1.7-.408 2.584a5.8 5.8 0 002.635.646c2.635 0 4.896-1.989 4.896-4.284 0-1.343-.731-2.057-2.448-2.43l-1.105-.239c-1.122-.238-1.632-.867-1.632-1.989 0-1.479 1.139-2.55 2.703-2.55.833 0 1.394.221 1.904.765v1.292h.51c.068-.918.187-1.564.425-2.295-.765-.408-1.445-.578-2.244-.578-2.108 0-4.522 1.564-4.522 3.995z" stroke="#E2E2E2" stroke-width=".136" fill="#E2E2E2"/><path d="M158.344 42.103h.869c.928 0 1.356.06 1.392.203.036.095.06.32.048.44l-.048.761h.333l.322-1.951-1.083.012c-1.047.012-1.857.024-2.273.024-.44 0-1.202-.012-2.225-.024l-1.131-.012-.214 1.951h.345l.178-.714c.06-.261.143-.452.215-.535.071-.083.523-.155.964-.155h1.332l-1.023 6.2c-.19 1.083-.214 1.119-.69 1.154l-.607.036-.048.333.679-.012c.476-.011.82-.023 1.011-.023.226 0 .595.012 1.06.023l.523.012.035-.333-.702-.036c-.31-.011-.428-.107-.428-.357 0-.107.012-.19.048-.416z" stroke="#E2E2E2" stroke-width=".095" fill="#E2E2E2"/><path d="M174.81 42.65v-.952h-8.568v.952zm6.089-3.876c0 1.445.646 2.244 2.074 2.584l1.615.391c.918.221 1.377.816 1.377 1.785 0 1.615-1.207 2.737-2.958 2.737-.918 0-1.564-.204-2.312-.73v-1.684h-.51c-.102.935-.221 1.7-.408 2.584a5.8 5.8 0 002.635.646c2.635 0 4.896-1.989 4.896-4.284 0-1.343-.731-2.057-2.448-2.43l-1.105-.239c-1.122-.238-1.632-.867-1.632-1.989 0-1.479 1.139-2.55 2.703-2.55.833 0 1.394.221 1.904.765v1.292h.51c.068-.918.187-1.564.425-2.295-.765-.408-1.445-.578-2.244-.578-2.108 0-4.522 1.564-4.522 3.995z" stroke="#E2E2E2" stroke-width=".136" fill="#E2E2E2"/><path d="M190.25 41.889l.654.024c.286.012.417.107.417.321l-.988 6.07c-.202 1.082-.214 1.118-.69 1.153l-.488.036-.048.333.5-.012c.488-.011.857-.023 1.07-.023.203 0 .548.012 1.024.023l.631.012.036-.333-.774-.036c-.31-.011-.428-.107-.428-.357 0-.107.012-.19.047-.416l1.167-6.605c.428-.071.618-.095.845-.095 1.213 0 1.796.524 1.796 1.63 0 1.286-.856 2.333-1.904 2.333-.261 0-.5-.06-.94-.226l.024.369c.44.214.678.273 1.024.273 1.535 0 2.844-1.392 2.844-3.01 0-1.202-.75-1.833-2.166-1.797h-3.618z" stroke="#E2E2E2" stroke-width=".095" fill="#E2E2E2"/><path fill="none" stroke="#e2e2e2" d="M143.766 29.141h53.515"/><path d="M214.33 27.492v-1.003h-9.163v1.003zm0 3.62V30.11h-9.163v1.003zm9.178 2.466c.952 0 2.907-1.241 3.638-2.312.697-1.037 1.275-2.907 1.275-4.182 0-1.14-.391-1.887-1.003-1.887-.714 0-1.615.442-2.5 1.24-.696.596-1.036 1.038-1.648 2.04l.408-2.022a4.57 4.57 0 00.085-.748c0-.323-.136-.51-.374-.51-.357 0-1.003.357-2.261 1.258l-.476.34.119.34.544-.357c.476-.306.663-.391.816-.391.17 0 .289.153.289.39 0 .137-.034.477-.068.647l-.986 5.83c-.17 1.02-.493 2.568-.833 4.098l-.136.629.119.102a7.105 7.105 0 011.24-.29l.715-4.453c.357.119.73.238 1.037.238zm-.561-2.992c.374-2.176 2.193-4.403 3.604-4.403.442 0 .646.374.646 1.156 0 1.377-.68 3.4-1.581 4.692-.34.493-.884.748-1.581.748-.527 0-.952-.12-1.394-.391zm6.34.22c0 1.803.766 2.772 2.177 2.772.935 0 1.955-.442 2.72-1.156 1.054-1.003 1.802-2.941 1.802-4.658 0-1.598-.85-2.567-2.261-2.567-1.768 0-4.437 1.7-4.437 5.61zm3.809-4.963c1.037 0 1.598.765 1.598 2.193 0 1.632-.527 3.434-1.275 4.335-.306.357-.748.56-1.275.56-.986 0-1.564-.764-1.564-2.107 0-1.921.663-4.012 1.496-4.692.22-.187.612-.29 1.02-.29zm3.96 5.032a15.07 15.07 0 01-.373 2.244c.646.306 1.224.459 1.819.459.833 0 1.615-.306 2.482-.986.867-.68 1.224-1.31 1.224-2.16 0-.917-.544-1.41-1.802-1.648l-.731-.136c-1.02-.187-1.343-.476-1.343-1.173 0-.901.765-1.598 1.734-1.598.697 0 1.343.306 1.615.765v.935h.39c.069-.595.137-1.054.324-1.921-.663-.323-1.14-.46-1.7-.46-.884 0-1.921.51-2.737 1.327-.442.459-.63.884-.63 1.496 0 .952.528 1.496 1.65 1.717l1.07.204c.749.136 1.02.442 1.02 1.105 0 1.105-.781 1.853-1.988 1.853a2.366 2.366 0 01-1.598-.595v-1.428z" stroke="#E2E2E2" stroke-width=".136" fill="#E2E2E2"/><path d="M244.89 28.498l.655.024c.285.012.416.107.416.321l-.988 6.07c-.202 1.082-.214 1.118-.69 1.154l-.488.036-.047.333.5-.012c.487-.012.856-.024 1.07-.024.203 0 .548.012 1.024.024l.63.012.036-.334-.773-.035c-.31-.012-.429-.107-.429-.357 0-.107.012-.19.048-.417l1.166-6.604c.429-.072.619-.095.845-.095 1.214 0 1.797.523 1.797 1.63 0 1.285-.857 2.332-1.904 2.332-.262 0-.5-.06-.94-.226l.024.37c.44.213.678.273 1.023.273 1.535 0 2.844-1.392 2.844-3.01 0-1.203-.75-1.834-2.166-1.798h-3.617zm9.14-.297c-1.845 0-2.785 1.464-2.785 4.343 0 1.393.25 2.595.666 3.178a2.206 2.206 0 001.82.916c1.798 0 2.702-1.547 2.702-4.593 0-2.607-.773-3.844-2.404-3.844zm-.215.416c1.154 0 1.619 1.167 1.619 4.023 0 2.534-.453 3.581-1.547 3.581-1.155 0-1.643-1.201-1.643-4.105 0-2.51.44-3.499 1.571-3.499z" stroke="#E2E2E2" stroke-width=".095" fill="#E2E2E2"/><path d="M271.518 29.294V28.29h-4.08v-4.046h-1.003v4.046h-4.08v1.003h4.08v4.097h1.003v-4.097zm6.964-.425c0-4.42 1.649-6.222 2.635-7.378l-.323-.442c-.969.867-3.774 3.128-3.774 7.82 0 1.819.425 3.536 1.241 5.066.595 1.139 1.139 1.802 2.533 3.11l.323-.356c-.782-.97-2.635-3.043-2.635-7.82zm5.01-3.485c0 1.445.646 2.244 2.074 2.584l1.615.39c.918.222 1.377.817 1.377 1.786 0 1.615-1.207 2.737-2.958 2.737-.918 0-1.564-.204-2.312-.731v-1.683h-.51c-.102.935-.22 1.7-.408 2.584a5.8 5.8 0 002.635.646c2.635 0 4.896-1.99 4.896-4.284 0-1.343-.73-2.057-2.448-2.431l-1.105-.238c-1.122-.238-1.632-.867-1.632-1.99 0-1.478 1.14-2.55 2.703-2.55.833 0 1.394.222 1.904.766v1.292h.51c.068-.918.187-1.564.425-2.295-.765-.408-1.445-.578-2.244-.578-2.108 0-4.522 1.564-4.522 3.995z" stroke="#E2E2E2" stroke-width=".136" fill="#E2E2E2"/><path d="M292.843 28.498l.655.024c.285.012.416.107.416.321l-.987 6.07c-.203 1.082-.215 1.118-.69 1.154l-.489.036-.047.333.5-.012c.488-.012.856-.024 1.07-.024.203 0 .548.012 1.024.024l.63.012.036-.334-.773-.035c-.31-.012-.428-.107-.428-.357 0-.107.011-.19.047-.417l1.166-6.604c.429-.072.62-.095.845-.095 1.214 0 1.797.523 1.797 1.63 0 1.285-.857 2.332-1.904 2.332-.262 0-.5-.06-.94-.226l.024.37c.44.213.678.273 1.023.273 1.535 0 2.844-1.392 2.844-3.01 0-1.203-.75-1.834-2.165-1.798h-3.618z" stroke="#E2E2E2" stroke-width=".095" fill="#E2E2E2"/><path d="M305.247 33.442c1.224 0 2.057-.187 2.941-.63 2.652-1.36 4.284-3.926 4.284-6.748 0-1.666-.51-2.856-1.547-3.587-.782-.561-2.227-.867-3.842-.85l-3.468.05h-.17c-.153 0-.204 0-1.921-.05l-.051.476.901.034c.408.017.595.153.595.459 0 .238-.068.782-.153 1.292l-1.479 8.568c-.085.408-.51.442-.901.544l-.085.442 1.581-.051h.935c.595 0 1.802.05 2.38.05zm1.156-11.186c3.094 0 4.505 1.292 4.505 4.08 0 3.23-1.7 6.358-5.44 6.358-.748 0-1.581-.085-2.737-.255 0-.204.017-.323.068-.63l1.632-9.468c.391 0 1.377-.085 1.972-.085z" stroke="#E2E2E2" stroke-width=".136" fill="#E2E2E2"/><path d="M314.843 28.498l.655.024c.285.012.416.107.416.321l-.987 6.07c-.203 1.082-.215 1.118-.69 1.154l-.489.036-.047.333.5-.012c.488-.012.856-.024 1.07-.024.203 0 .548.012 1.024.024l.63.012.036-.334-.773-.035c-.31-.012-.428-.107-.428-.357 0-.107.011-.19.047-.417l1.166-6.604c.429-.072.62-.095.845-.095 1.214 0 1.797.523 1.797 1.63 0 1.285-.857 2.332-1.904 2.332-.262 0-.5-.06-.94-.226l.024.37c.44.213.678.273 1.023.273 1.535 0 2.844-1.392 2.844-3.01 0-1.203-.75-1.834-2.165-1.798h-3.618z" stroke="#E2E2E2" stroke-width=".095" fill="#E2E2E2"/><path d="M322.742 21.049l-.323.442c.935 1.088 2.635 2.958 2.635 7.378 0 4.692-1.768 6.749-2.635 7.82l.323.357c.901-.85 3.774-3.264 3.774-8.16 0-4.71-2.805-6.97-3.774-7.837zm14.25-1.862c.952 0 2.907-1.241 3.638-2.312.697-1.037 1.275-2.907 1.275-4.182 0-1.139-.391-1.887-1.003-1.887-.714 0-1.615.442-2.499 1.241-.697.595-1.037 1.037-1.649 2.04l.408-2.023a4.57 4.57 0 00.085-.748c0-.323-.136-.51-.374-.51-.357 0-1.003.357-2.261 1.258l-.476.34.119.34.544-.357c.476-.306.663-.391.816-.391.17 0 .289.153.289.391 0 .136-.034.476-.068.646l-.986 5.831c-.17 1.02-.493 2.567-.833 4.097l-.136.629.119.102a7.105 7.105 0 011.241-.289l.714-4.454c.357.119.731.238 1.037.238zm-.561-2.992c.374-2.176 2.193-4.403 3.604-4.403.442 0 .646.374.646 1.156 0 1.377-.68 3.4-1.581 4.692-.34.493-.884.748-1.581.748-.527 0-.952-.119-1.394-.391zm6.341.221c0 1.802.765 2.771 2.176 2.771.935 0 1.955-.442 2.72-1.156 1.054-1.003 1.802-2.941 1.802-4.658 0-1.598-.85-2.567-2.261-2.567-1.768 0-4.437 1.7-4.437 5.61zm3.808-4.964c1.037 0 1.598.765 1.598 2.193 0 1.632-.527 3.434-1.275 4.335-.306.357-.748.561-1.275.561-.986 0-1.564-.765-1.564-2.108 0-1.921.663-4.012 1.496-4.692.221-.187.612-.289 1.02-.289zm3.961 5.032a15.07 15.07 0 01-.374 2.244c.646.306 1.224.459 1.819.459.833 0 1.615-.306 2.482-.986.867-.68 1.224-1.309 1.224-2.159 0-.918-.544-1.411-1.802-1.649l-.731-.136c-1.02-.187-1.343-.476-1.343-1.173 0-.901.765-1.598 1.734-1.598.697 0 1.343.306 1.615.765v.935h.391c.068-.595.136-1.054.323-1.921-.663-.323-1.139-.459-1.7-.459-.884 0-1.921.51-2.737 1.326-.442.459-.629.884-.629 1.496 0 .952.527 1.496 1.649 1.717l1.071.204c.748.136 1.02.442 1.02 1.105 0 1.105-.782 1.853-1.989 1.853a2.366 2.366 0 01-1.598-.595v-1.428z" stroke="#E2E2E2" stroke-width=".136" fill="#E2E2E2"/><path d="M358.41 16.404c0 1.012.452 1.571 1.452 1.81l1.13.273c.643.155.964.571.964 1.25 0 1.13-.845 1.915-2.07 1.915-.643 0-1.095-.142-1.619-.511v-1.178h-.357c-.071.654-.154 1.19-.285 1.808a4.06 4.06 0 001.844.453c1.845 0 3.427-1.393 3.427-3 0-.94-.511-1.44-1.713-1.7l-.774-.168c-.785-.166-1.142-.606-1.142-1.392 0-1.035.797-1.785 1.892-1.785.583 0 .976.155 1.333.536v.904h.357c.048-.643.13-1.095.297-1.606a3.156 3.156 0 00-1.57-.405c-1.476 0-3.166 1.095-3.166 2.796zm9.96-2.082h.87c.927 0 1.356.06 1.391.202.036.095.06.322.048.44l-.048.762h.334l.321-1.951-1.083.011c-1.047.012-1.856.024-2.273.024-.44 0-1.202-.012-2.225-.024l-1.13-.011-.215 1.951h.345l.179-.714c.06-.262.143-.452.214-.535.071-.084.524-.155.964-.155h1.333l-1.024 6.2c-.19 1.083-.214 1.118-.69 1.154l-.607.036-.047.333.678-.012c.476-.012.821-.024 1.011-.024.227 0 .595.012 1.06.024l.523.012.036-.333-.702-.036c-.31-.012-.429-.107-.429-.357 0-.107.012-.19.048-.416zm5.748-.512c-1.844 0-2.784 1.464-2.784 4.344 0 1.392.25 2.594.666 3.177a2.206 2.206 0 001.82.916c1.798 0 2.702-1.547 2.702-4.593 0-2.606-.774-3.844-2.404-3.844zm-.214.417c1.154 0 1.618 1.166 1.618 4.022 0 2.535-.452 3.582-1.547 3.582-1.154 0-1.642-1.202-1.642-4.106 0-2.51.44-3.498 1.571-3.498z" stroke="#E2E2E2" stroke-width=".095" fill="#E2E2E2"/><path d="M331.055 38.774c0 1.445.646 2.244 2.074 2.584l1.615.391c.918.221 1.377.816 1.377 1.785 0 1.615-1.207 2.737-2.958 2.737-.918 0-1.564-.204-2.312-.73v-1.684h-.51c-.102.935-.221 1.7-.408 2.584a5.8 5.8 0 002.635.646c2.635 0 4.896-1.989 4.896-4.284 0-1.343-.731-2.057-2.448-2.43l-1.105-.239c-1.122-.238-1.632-.867-1.632-1.989 0-1.479 1.139-2.55 2.703-2.55.833 0 1.394.221 1.904.765v1.292h.51c.068-.918.187-1.564.425-2.295-.765-.408-1.445-.578-2.244-.578-2.108 0-4.522 1.564-4.522 3.995z" stroke="#E2E2E2" stroke-width=".136" fill="#E2E2E2"/><path d="M343.797 42.103h.869c.928 0 1.357.06 1.392.203.036.095.06.32.048.44l-.048.761h.333l.322-1.951-1.083.012c-1.047.012-1.857.024-2.273.024-.44 0-1.202-.012-2.225-.024l-1.13-.012-.215 1.951h.345l.179-.714c.059-.261.142-.452.214-.535.071-.083.523-.155.964-.155h1.332l-1.023 6.2c-.19 1.083-.214 1.119-.69 1.154l-.607.036-.048.333.679-.012c.476-.011.82-.023 1.011-.023.226 0 .595.012 1.06.023l.523.012.036-.333-.703-.036c-.309-.011-.428-.107-.428-.357 0-.107.012-.19.048-.416z" stroke="#E2E2E2" stroke-width=".095" fill="#E2E2E2"/><path d="M360.263 42.65v-.952h-8.568v.952zm6.089-3.876c0 1.445.646 2.244 2.074 2.584l1.615.391c.918.221 1.377.816 1.377 1.785 0 1.615-1.207 2.737-2.958 2.737-.918 0-1.564-.204-2.312-.73v-1.684h-.51c-.102.935-.221 1.7-.408 2.584a5.8 5.8 0 002.635.646c2.635 0 4.896-1.989 4.896-4.284 0-1.343-.731-2.057-2.448-2.43l-1.105-.239c-1.122-.238-1.632-.867-1.632-1.989 0-1.479 1.139-2.55 2.703-2.55.833 0 1.394.221 1.904.765v1.292h.51c.068-.918.187-1.564.425-2.295-.765-.408-1.445-.578-2.244-.578-2.108 0-4.522 1.564-4.522 3.995z" stroke="#E2E2E2" stroke-width=".136" fill="#E2E2E2"/><path d="M375.703 41.889l.654.024c.286.012.417.107.417.321l-.988 6.07c-.202 1.082-.214 1.118-.69 1.153l-.488.036-.048.333.5-.012c.488-.011.857-.023 1.071-.023.202 0 .547.012 1.023.023l.631.012.036-.333-.774-.036c-.31-.011-.428-.107-.428-.357 0-.107.012-.19.048-.416l1.166-6.605c.428-.071.619-.095.845-.095 1.213 0 1.797.524 1.797 1.63 0 1.286-.857 2.333-1.904 2.333-.262 0-.5-.06-.94-.226l.023.369c.44.214.679.273 1.024.273 1.535 0 2.844-1.392 2.844-3.01 0-1.202-.75-1.833-2.166-1.797h-3.618z" stroke="#E2E2E2" stroke-width=".095" fill="#E2E2E2"/><path fill="none" stroke="#e2e2e2" d="M329.219 29.141h53.515"/></svg>