<svg xmlns="http://www.w3.org/2000/svg" width="195.969" height="49.172" style="width:195.96875px;height:49.171875px;background:0 0" font-family="Asana-Math,Asana"><path d="M5.052 36.315V21.27H4.049v15.045zm5.049-2.737c.952 0 2.907-1.241 3.638-2.312.697-1.037 1.275-2.907 1.275-4.182 0-1.14-.39-1.887-1.003-1.887-.714 0-1.615.442-2.499 1.24-.697.596-1.037 1.038-1.649 2.04l.408-2.022a4.57 4.57 0 00.085-.748c0-.323-.136-.51-.374-.51-.357 0-1.003.357-2.26 1.258l-.477.34.12.34.543-.357c.476-.306.663-.391.816-.391.17 0 .29.153.29.39 0 .137-.035.477-.069.647l-.986 5.83c-.17 1.02-.493 2.568-.833 4.098l-.136.629.12.102a7.105 7.105 0 011.24-.29l.714-4.453c.357.119.731.238 1.037.238zm-.56-2.992c.373-2.176 2.192-4.403 3.603-4.403.442 0 .646.374.646 1.156 0 1.377-.68 3.4-1.58 4.692-.34.493-.885.748-1.582.748-.527 0-.952-.12-1.394-.391zm12.307-3.4c.051-.646.136-1.19.272-1.887-.187-.085-.255-.102-.34-.102-.527 0-1.054.408-1.666 1.275-.663.952-1.326 1.972-1.598 2.567l.544-2.584c.068-.29.102-.51.102-.714 0-.34-.136-.544-.39-.544-.358 0-1.004.357-2.262 1.258l-.476.34.12.34.543-.357c.476-.306.663-.391.816-.391.17 0 .29.153.29.374 0 .986-.732 4.488-1.412 6.664l.17.119c.255-.085.527-.136.918-.221l.221-.034.442-2.04c.306-1.411.697-2.312 1.445-3.281.578-.748 1.037-1.105 1.411-1.105.255 0 .425.085.612.323zm.63 3.62c0 1.803.764 2.772 2.175 2.772.935 0 1.955-.442 2.72-1.156 1.054-1.003 1.802-2.941 1.802-4.658 0-1.598-.85-2.567-2.26-2.567-1.769 0-4.438 1.7-4.438 5.61zm3.807-4.963c1.037 0 1.598.765 1.598 2.193 0 1.632-.527 3.434-1.275 4.335-.306.357-.748.56-1.275.56-.986 0-1.564-.764-1.564-2.107 0-1.921.663-4.012 1.496-4.692.221-.187.612-.29 1.02-.29zm6.732 1.58l-1.7 8.416c-.187.884-.493 1.479-.799 1.479-.238 0-.544-.102-.9-.323l-.137.969c.17.085.391.119.646.119.68 0 1.36-.731 1.972-2.108.34-.765.578-1.615 1.054-3.774l1.292-5.95a3.68 3.68 0 00.102-.63c0-.271-.153-.424-.425-.424-.374 0-1.003.357-2.278 1.258l-.476.34.12.34.543-.357c.63-.391.68-.425.8-.425.17 0 .305.17.305.39 0 .154-.119.596-.119.68zm1.547-6.136c-.493 0-.986.56-.986 1.139 0 .425.255.697.663.697.527 0 .935-.493.935-1.14 0-.407-.255-.696-.612-.696z" stroke="#E2E2E2" stroke-width=".136" fill="#E2E2E2"/><path d="M37.03 28.498l.655.024c.286.012.417.107.417.321l-.988 6.07c-.202 1.082-.214 1.118-.69 1.154l-.488.036-.048.333.5-.012c.488-.012.857-.024 1.071-.024.202 0 .548.012 1.024.024l.63.012.036-.334-.774-.035c-.309-.012-.428-.107-.428-.357 0-.107.012-.19.048-.417l1.166-6.604c.428-.072.619-.095.845-.095 1.214 0 1.797.523 1.797 1.63 0 1.285-.857 2.332-1.904 2.332-.262 0-.5-.06-.94-.226l.023.37c.44.213.679.273 1.024.273 1.535 0 2.844-1.392 2.844-3.01 0-1.203-.75-1.834-2.166-1.798h-3.618zm10.651.215h.869c.928 0 1.357.06 1.392.202.036.095.06.321.048.44l-.048.762h.333l.322-1.952-1.083.012c-1.047.012-1.857.024-2.273.024-.44 0-1.202-.012-2.225-.024l-1.13-.012-.215 1.952h.345l.179-.714c.059-.262.142-.452.214-.536.071-.083.523-.154.964-.154h1.332l-1.023 6.2c-.19 1.082-.214 1.118-.69 1.154l-.607.036-.048.333.679-.012c.476-.012.82-.024 1.011-.024.226 0 .595.012 1.06.024l.523.012.036-.333-.703-.036c-.309-.012-.428-.107-.428-.357 0-.107.012-.19.048-.417z" stroke="#E2E2E2" stroke-width=".095" fill="#E2E2E2"/><path d="M56.598 31.759l-1.207-8.976c-.034-.374.034-.63.714-.646l.714-.034v-.476l-.697.017c-.629.017-1.105.034-1.41.034-.307 0-.783-.017-1.412-.034l-.697-.017v.476l.425.034c.748.05.884.187 1.003.816l1.496 10.574h.833l6.426-10.523c.425-.68.561-.8 1.054-.867l.306-.034v-.476l-.51.017c-.459.017-.85.034-1.122.034-.17 0-.629-.017-1.326-.034l-.782-.017v.476l.442.034c.646.05.97.22.97.544 0 .187-.069.374-.273.714z" stroke="#E2E2E2" stroke-width=".136" fill="#E2E2E2"/><path d="M68.735 28.713h.868c.929 0 1.357.06 1.393.202.035.095.06.321.047.44l-.047.762h.333l.321-1.952-1.083.012c-1.047.012-1.856.024-2.273.024-.44 0-1.201-.012-2.225-.024l-1.13-.012-.215 1.952h.346l.178-.714c.06-.262.143-.452.214-.536.072-.083.524-.154.964-.154h1.333l-1.023 6.2c-.19 1.082-.215 1.118-.69 1.154l-.608.036-.047.333.678-.012c.476-.012.821-.024 1.012-.024.226 0 .595.012 1.059.024l.523.012.036-.333-.702-.036c-.31-.012-.428-.107-.428-.357 0-.107.011-.19.047-.417z" stroke="#E2E2E2" stroke-width=".095" fill="#E2E2E2"/><path d="M75.427 36.315V21.27h-1.003v15.045zm17.419-8.823v-1.003h-9.163v1.003zm0 3.62V30.11h-9.163v1.003zm13.143-13.744l-1.207-8.976c-.034-.374.034-.629.714-.646l.714-.034v-.476l-.697.017c-.63.017-1.105.034-1.411.034-.306 0-.782-.017-1.411-.034l-.697-.017v.476l.425.034c.748.051.884.187 1.003.816l1.496 10.574h.833l6.426-10.523c.425-.68.56-.799 1.054-.867l.306-.034v-.476l-.51.017c-.46.017-.85.034-1.122.034-.17 0-.63-.017-1.326-.034l-.782-.017v.476l.442.034c.646.051.969.221.969.544 0 .187-.068.374-.272.714z" stroke="#E2E2E2" stroke-width=".136" fill="#E2E2E2"/><path d="M118.125 14.322h.87c.927 0 1.356.06 1.391.202.036.095.06.322.048.44l-.048.762h.334l.32-1.951-1.082.011c-1.047.012-1.856.024-2.273.024-.44 0-1.202-.012-2.225-.024l-1.13-.011-.215 1.951h.345l.179-.714c.06-.262.142-.452.214-.535.071-.084.523-.155.964-.155h1.333l-1.024 6.2c-.19 1.083-.214 1.118-.69 1.154l-.607.036-.048.333.679-.012c.476-.012.82-.024 1.011-.024.226 0 .595.012 1.06.024l.523.012.036-.333-.702-.036c-.31-.012-.429-.107-.429-.357 0-.107.012-.19.048-.416z" stroke="#E2E2E2" stroke-width=".095" fill="#E2E2E2"/><path d="M127.264 13.407c-.51 0-.969.476-.969.986s.46.986.952.986c.544 0 1.02-.459 1.02-.969 0-.527-.476-1.003-1.003-1.003zm7.302-5.695l.935.034c.408.017.595.153.595.459l-1.41 8.67c-.29 1.547-.307 1.598-.987 1.649l-.697.051-.068.476.714-.017c.697-.017 1.224-.034 1.53-.034.29 0 .782.017 1.462.034l.901.017.051-.476-1.105-.051c-.442-.017-.612-.153-.612-.51 0-.153.017-.272.068-.595l1.666-9.435c.612-.102.884-.136 1.207-.136 1.734 0 2.567.748 2.567 2.329 0 1.836-1.224 3.332-2.72 3.332-.374 0-.714-.085-1.343-.323l.034.527c.63.306.97.391 1.462.391 2.193 0 4.063-1.989 4.063-4.301 0-1.717-1.07-2.618-3.094-2.567h-5.168zm15.215.306h1.241c1.326 0 1.938.085 1.99.289.05.136.084.459.067.629l-.068 1.088h.476l.46-2.788-1.548.017c-1.496.017-2.652.034-3.247.034-.629 0-1.717-.017-3.179-.034l-1.615-.017-.306 2.788h.493l.255-1.02c.085-.374.204-.646.306-.765.102-.119.748-.221 1.377-.221h1.904l-1.462 8.857c-.272 1.547-.306 1.598-.986 1.649l-.867.051-.068.476.97-.017c.68-.017 1.172-.034 1.444-.034.323 0 .85.017 1.513.034l.748.017.051-.476-1.003-.051c-.442-.017-.612-.153-.612-.51 0-.153.017-.272.068-.595zm-35.089 41.687V34.66h-1.003v15.045zm3.843-14.212l.935.034c.408.017.595.153.595.46l-1.411 8.67c-.289 1.546-.306 1.597-.986 1.648l-.697.051-.068.476.714-.017c.697-.017 1.224-.034 1.53-.034.289 0 .782.017 1.462.034l.901.017.051-.476-1.105-.05c-.442-.018-.612-.154-.612-.51 0-.154.017-.273.068-.596l1.666-9.435c.612-.102.884-.136 1.207-.136 1.734 0 2.567.748 2.567 2.33 0 1.835-1.224 3.331-2.72 3.331-.374 0-.714-.085-1.343-.323l.034.527c.629.306.969.391 1.462.391 2.193 0 4.063-1.989 4.063-4.3 0-1.718-1.071-2.619-3.094-2.568h-5.168zm15.215.306h1.241c1.326 0 1.938.085 1.989.29.051.135.085.458.068.628l-.068 1.088h.476l.459-2.788-1.547.017c-1.496.017-2.652.034-3.247.034-.629 0-1.717-.017-3.179-.034l-1.615-.017-.306 2.788h.493l.255-1.02c.085-.374.204-.646.306-.765.102-.119.748-.22 1.377-.22h1.904l-1.462 8.856c-.272 1.547-.306 1.598-.986 1.65l-.867.05-.068.476.969-.017c.68-.017 1.173-.034 1.445-.034.323 0 .85.017 1.513.034l.748.017.051-.476-1.003-.05c-.442-.018-.612-.154-.612-.51 0-.154.017-.273.068-.596zm6.802 13.906V34.66h-1.003v15.045z" stroke="#E2E2E2" stroke-width=".136" fill="#E2E2E2"/><path fill="none" stroke="#e2e2e2" d="M100.719 29.141h52.812"/><path d="M170.58 27.492v-1.003h-9.163v1.003zm0 3.62V30.11h-9.163v1.003zm8.022-5.728c0 1.445.646 2.244 2.074 2.584l1.615.39c.918.222 1.377.817 1.377 1.786 0 1.615-1.207 2.737-2.958 2.737-.918 0-1.564-.204-2.312-.731v-1.683h-.51c-.102.935-.221 1.7-.408 2.584a5.8 5.8 0 002.635.646c2.635 0 4.896-1.99 4.896-4.284 0-1.343-.731-2.057-2.448-2.431l-1.105-.238c-1.122-.238-1.632-.867-1.632-1.99 0-1.478 1.139-2.55 2.703-2.55.833 0 1.394.222 1.904.766v1.292h.51c.068-.918.187-1.564.425-2.295-.765-.408-1.445-.578-2.244-.578-2.108 0-4.522 1.564-4.522 3.995z" stroke="#E2E2E2" stroke-width=".136" fill="#E2E2E2"/><path d="M191.344 28.713h.869c.928 0 1.356.06 1.392.202.036.095.06.321.048.44l-.048.762h.333l.322-1.952-1.083.012c-1.047.012-1.857.024-2.273.024-.44 0-1.202-.012-2.225-.024l-1.131-.012-.214 1.952h.345l.178-.714c.06-.262.143-.452.215-.536.071-.083.523-.154.964-.154h1.332l-1.023 6.2c-.19 1.082-.214 1.118-.69 1.154l-.607.036-.048.333.679-.012c.476-.012.82-.024 1.011-.024.226 0 .595.012 1.06.024l.523.012.035-.333-.702-.036c-.31-.012-.428-.107-.428-.357 0-.107.012-.19.048-.417z" stroke="#E2E2E2" stroke-width=".095" fill="#E2E2E2"/></svg>