<svg xmlns="http://www.w3.org/2000/svg" width="157" height="26.391" style="width:157px;height:26.390625px;background:0 0" font-family="Asana-Math,Asana"><path d="M4.992 19.187c.952 0 2.907-1.241 3.638-2.312.697-1.037 1.275-2.907 1.275-4.182 0-1.139-.391-1.887-1.003-1.887-.714 0-1.615.442-2.499 1.241-.697.595-1.037 1.037-1.649 2.04l.408-2.023a4.57 4.57 0 00.085-.748c0-.323-.136-.51-.374-.51-.357 0-1.003.357-2.261 1.258l-.476.34.119.34.544-.357c.476-.306.663-.391.816-.391.17 0 .289.153.289.391 0 .136-.034.476-.068.646l-.986 5.831c-.17 1.02-.493 2.567-.833 4.097l-.136.629.119.102a7.105 7.105 0 011.241-.289l.714-4.454c.357.119.731.238 1.037.238zm-.561-2.992c.374-2.176 2.193-4.403 3.604-4.403.442 0 .646.374.646 1.156 0 1.377-.68 3.4-1.581 4.692-.34.493-.884.748-1.581.748-.527 0-.952-.119-1.394-.391zm6.341.221c0 1.802.765 2.771 2.176 2.771.935 0 1.955-.442 2.72-1.156 1.054-1.003 1.802-2.941 1.802-4.658 0-1.598-.85-2.567-2.261-2.567-1.768 0-4.437 1.7-4.437 5.61zm3.808-4.964c1.037 0 1.598.765 1.598 2.193 0 1.632-.527 3.434-1.275 4.335-.306.357-.748.561-1.275.561-.986 0-1.564-.765-1.564-2.108 0-1.921.663-4.012 1.496-4.692.221-.187.612-.289 1.02-.289zm3.961 5.032a15.07 15.07 0 01-.374 2.244c.646.306 1.224.459 1.819.459.833 0 1.615-.306 2.482-.986.867-.68 1.224-1.309 1.224-2.159 0-.918-.544-1.411-1.802-1.649l-.731-.136c-1.02-.187-1.343-.476-1.343-1.173 0-.901.765-1.598 1.734-1.598.697 0 1.343.306 1.615.765v.935h.391c.068-.595.136-1.054.323-1.921-.663-.323-1.139-.459-1.7-.459-.884 0-1.921.51-2.737 1.326-.442.459-.629.884-.629 1.496 0 .952.527 1.496 1.649 1.717l1.071.204c.748.136 1.02.442 1.02 1.105 0 1.105-.782 1.853-1.989 1.853a2.366 2.366 0 01-1.598-.595v-1.428z" stroke="#E2E2E2" stroke-width=".136" fill="#E2E2E2"/><path d="M29.766 14.322h.869c.928 0 1.356.06 1.392.202.036.095.06.322.048.44l-.048.762h.333l.321-1.951-1.082.011c-1.048.012-1.857.024-2.273.024-.44 0-1.202-.012-2.226-.024l-1.13-.011-.214 1.951h.345l.178-.714c.06-.262.143-.452.214-.535.072-.084.524-.155.964-.155h1.333l-1.023 6.2c-.19 1.083-.214 1.118-.69 1.154l-.607.036-.048.333.678-.012c.476-.012.821-.024 1.012-.024.226 0 .595.012 1.059.024l.524.012.035-.333-.702-.036c-.31-.012-.428-.107-.428-.357 0-.107.012-.19.047-.416zm6.724 2.487h-.19l.249-1.333c.19-1.023.524-1.475 1.071-1.475.357 0 .678.178.857.464l.119-.048c.06-.19.178-.56.274-.797l.059-.179a2.474 2.474 0 00-.833-.154c-.13 0-.321.035-.417.083-.285.13-1.26.857-1.535 1.142-.261.262-.404.62-.535 1.297l-.179.94a8.99 8.99 0 01-1.023.44l-.06.263h.964l-.107.666c-.357 2.32-.797 4.534-1.059 5.355-.214.702-.571 1.071-1 1.071-.273 0-.404-.083-.618-.345l-.167.048c-.047.273-.214.844-.274.952a.97.97 0 00.417.095c.488 0 1.13-.37 1.595-.928.844-1 1.082-2.142 2.082-6.914h1.238c.047-.226.13-.5.202-.667l-.048-.083c-.345.083-.333.107-1.083.107z" stroke="#E2E2E2" stroke-width=".095" fill="#E2E2E2"/><path d="M55.315 13.101v-1.003h-9.163v1.003zm0 3.621v-1.003h-9.163v1.003zm9.177 2.465c.952 0 2.907-1.241 3.638-2.312.697-1.037 1.275-2.907 1.275-4.182 0-1.139-.391-1.887-1.003-1.887-.714 0-1.615.442-2.499 1.241-.697.595-1.037 1.037-1.649 2.04l.408-2.023a4.57 4.57 0 00.085-.748c0-.323-.136-.51-.374-.51-.357 0-1.003.357-2.261 1.258l-.476.34.119.34.544-.357c.476-.306.663-.391.816-.391.17 0 .289.153.289.391 0 .136-.034.476-.068.646l-.986 5.831c-.17 1.02-.493 2.567-.833 4.097l-.136.629.119.102a7.105 7.105 0 011.241-.289l.714-4.454c.357.119.731.238 1.037.238zm-.561-2.992c.374-2.176 2.193-4.403 3.604-4.403.442 0 .646.374.646 1.156 0 1.377-.68 3.4-1.581 4.692-.34.493-.884.748-1.581.748-.527 0-.952-.119-1.394-.391zm6.341.221c0 1.802.765 2.771 2.176 2.771.935 0 1.955-.442 2.72-1.156 1.054-1.003 1.802-2.941 1.802-4.658 0-1.598-.85-2.567-2.261-2.567-1.768 0-4.437 1.7-4.437 5.61zm3.808-4.964c1.037 0 1.598.765 1.598 2.193 0 1.632-.527 3.434-1.275 4.335-.306.357-.748.561-1.275.561-.986 0-1.564-.765-1.564-2.108 0-1.921.663-4.012 1.496-4.692.221-.187.612-.289 1.02-.289zm3.961 5.032a15.07 15.07 0 01-.374 2.244c.646.306 1.224.459 1.819.459.833 0 1.615-.306 2.482-.986.867-.68 1.224-1.309 1.224-2.159 0-.918-.544-1.411-1.802-1.649l-.731-.136c-1.02-.187-1.343-.476-1.343-1.173 0-.901.765-1.598 1.734-1.598.697 0 1.343.306 1.615.765v.935h.391c.068-.595.136-1.054.323-1.921-.663-.323-1.139-.459-1.7-.459-.884 0-1.921.51-2.737 1.326-.442.459-.629.884-.629 1.496 0 .952.527 1.496 1.649 1.717l1.071.204c.748.136 1.02.442 1.02 1.105 0 1.105-.782 1.853-1.989 1.853a2.366 2.366 0 01-1.598-.595v-1.428z" stroke="#E2E2E2" stroke-width=".136" fill="#E2E2E2"/><path d="M89.266 14.322h.869c.928 0 1.356.06 1.392.202.036.095.06.322.048.44l-.048.762h.333l.322-1.951-1.083.011c-1.048.012-1.857.024-2.273.024-.44 0-1.202-.012-2.226-.024l-1.13-.011-.214 1.951h.345l.178-.714c.06-.262.143-.452.215-.535.07-.084.523-.155.963-.155h1.333l-1.023 6.2c-.19 1.083-.214 1.118-.69 1.154l-.607.036-.048.333.678-.012c.476-.012.822-.024 1.012-.024.226 0 .595.012 1.059.024l.524.012.035-.333-.702-.036c-.31-.012-.428-.107-.428-.357 0-.107.012-.19.047-.416zm5.748-.512c-1.845 0-2.785 1.464-2.785 4.344 0 1.392.25 2.594.667 3.177a2.206 2.206 0 001.82.916c1.797 0 2.702-1.547 2.702-4.593 0-2.606-.774-3.844-2.404-3.844zm-.214.417c1.154 0 1.618 1.166 1.618 4.022 0 2.535-.452 3.582-1.547 3.582-1.154 0-1.642-1.202-1.642-4.106 0-2.51.44-3.498 1.57-3.498z" stroke="#E2E2E2" stroke-width=".095" fill="#E2E2E2"/><path d="M112.502 14.903V13.9h-4.08V9.854h-1.003V13.9h-4.08v1.003h4.08V19h1.003v-4.097zm6.964-.425c0-4.42 1.65-6.222 2.635-7.378l-.323-.442c-.969.867-3.774 3.128-3.774 7.82 0 1.819.425 3.536 1.241 5.066.595 1.139 1.14 1.802 2.533 3.111l.323-.357c-.782-.969-2.635-3.043-2.635-7.82zm8.444 2.89l-1.206-8.976c-.034-.374.034-.629.714-.646l.714-.034v-.476l-.697.017c-.63.017-1.105.034-1.411.034-.306 0-.782-.017-1.411-.034l-.697-.017v.476l.425.034c.748.051.884.187 1.003.816l1.496 10.574h.833l6.426-10.523c.425-.68.56-.799 1.054-.867l.306-.034v-.476l-.51.017c-.46.017-.85.034-1.122.034-.17 0-.63-.017-1.326-.034l-.782-.017v.476l.442.034c.646.051.969.221.969.544 0 .187-.068.374-.272.714z" stroke="#E2E2E2" stroke-width=".136" fill="#E2E2E2"/><path d="M136.656 14.108l.654.024c.286.011.417.107.417.32l-.988 6.07c-.202 1.083-.214 1.118-.69 1.154l-.488.036-.048.333.5-.012c.488-.012.857-.024 1.071-.024.202 0 .548.012 1.024.024l.63.012.036-.333-.774-.036c-.309-.012-.428-.107-.428-.357 0-.107.012-.19.048-.416l1.166-6.605c.428-.071.619-.095.845-.095 1.214 0 1.797.524 1.797 1.63 0 1.285-.857 2.333-1.904 2.333-.262 0-.5-.06-.94-.226l.023.368c.44.215.679.274 1.024.274 1.535 0 2.844-1.392 2.844-3.01 0-1.202-.75-1.833-2.166-1.797h-3.618z" stroke="#E2E2E2" stroke-width=".095" fill="#E2E2E2"/><path d="M144.554 6.658l-.323.442c.935 1.088 2.635 2.958 2.635 7.378 0 4.692-1.768 6.749-2.635 7.82l.323.357c.901-.85 3.774-3.264 3.774-8.16 0-4.709-2.805-6.97-3.774-7.837zm6.915 5.712l-.952 4.811c-.017.136-.221.782-.221 1.292 0 .425.187.68.51.68.595 0 1.19-.34 2.516-1.411l.527-.425-.17-.306-.765.527c-.493.34-.833.51-1.02.51-.153 0-.238-.136-.238-.34 0-.442.238-1.819.73-4.284l.222-1.054h1.819l.187-.85a17.23 17.23 0 01-1.87.102c.272-1.598.459-2.431.765-3.349l-.187-.255c-.34.204-.8.408-1.326.612l-.425 2.89c-.748.357-1.19.544-1.496.629l-.034.221z" stroke="#E2E2E2" stroke-width=".136" fill="#E2E2E2"/></svg>