<svg xmlns="http://www.w3.org/2000/svg" width="86.406" height="54.172" style="width:86.40625px;height:54.171875px;background:0 0" font-family="Asana-Math,Asana"><path d="M9.773 19.187c.952 0 2.907-1.241 3.638-2.312.697-1.037 1.275-2.907 1.275-4.182 0-1.139-.39-1.887-1.003-1.887-.714 0-1.615.442-2.499 1.241-.697.595-1.037 1.037-1.649 2.04l.408-2.023a4.57 4.57 0 00.085-.748c0-.323-.136-.51-.374-.51-.357 0-1.003.357-2.26 1.258l-.477.34.12.34.543-.357c.476-.306.663-.391.816-.391.17 0 .29.153.29.391 0 .136-.035.476-.069.646l-.986 5.831c-.17 1.02-.493 2.567-.833 4.097l-.136.629.12.102a7.105 7.105 0 011.24-.289l.714-4.454c.357.119.731.238 1.037.238zm-.56-2.992c.373-2.176 2.192-4.403 3.603-4.403.442 0 .646.374.646 1.156 0 1.377-.68 3.4-1.58 4.692-.34.493-.885.748-1.582.748-.527 0-.952-.119-1.394-.391zm6.34.221c0 1.802.765 2.771 2.176 2.771.935 0 1.955-.442 2.72-1.156 1.054-1.003 1.802-2.941 1.802-4.658 0-1.598-.85-2.567-2.26-2.567-1.769 0-4.438 1.7-4.438 5.61zm3.808-4.964c1.037 0 1.598.765 1.598 2.193 0 1.632-.527 3.434-1.275 4.335-.306.357-.748.561-1.275.561-.986 0-1.564-.765-1.564-2.108 0-1.921.663-4.012 1.496-4.692.221-.187.612-.289 1.02-.289zm3.961 5.032a15.07 15.07 0 01-.374 2.244c.646.306 1.224.459 1.82.459.832 0 1.614-.306 2.481-.986.867-.68 1.224-1.309 1.224-2.159 0-.918-.544-1.411-1.802-1.649l-.73-.136c-1.02-.187-1.344-.476-1.344-1.173 0-.901.765-1.598 1.734-1.598.697 0 1.343.306 1.615.765v.935h.391c.068-.595.136-1.054.323-1.921-.663-.323-1.139-.459-1.7-.459-.884 0-1.92.51-2.737 1.326-.442.459-.629.884-.629 1.496 0 .952.527 1.496 1.65 1.717l1.07.204c.748.136 1.02.442 1.02 1.105 0 1.105-.782 1.853-1.989 1.853a2.366 2.366 0 01-1.598-.595v-1.428z" stroke="#E2E2E2" stroke-width=".136" fill="#E2E2E2"/><path d="M31.191 16.404c0 1.012.453 1.571 1.452 1.81l1.13.273c.643.155.965.571.965 1.25 0 1.13-.845 1.915-2.07 1.915-.644 0-1.096-.142-1.62-.511v-1.178h-.356c-.072.654-.155 1.19-.286 1.808a4.06 4.06 0 001.845.453c1.844 0 3.427-1.393 3.427-3 0-.94-.512-1.44-1.714-1.7l-.773-.168c-.786-.166-1.143-.606-1.143-1.392 0-1.035.798-1.785 1.892-1.785.583 0 .976.155 1.333.536v.904h.357c.048-.643.131-1.095.298-1.606a3.156 3.156 0 00-1.571-.405c-1.476 0-3.166 1.095-3.166 2.796zm9.96-2.082h.87c.928 0 1.356.06 1.392.202.035.095.06.322.047.44l-.047.762h.333l.321-1.951-1.083.011c-1.047.012-1.856.024-2.273.024-.44 0-1.201-.012-2.225-.024l-1.13-.011-.215 1.951h.346l.178-.714c.06-.262.143-.452.214-.535.072-.084.524-.155.964-.155h1.333l-1.023 6.2c-.19 1.083-.215 1.118-.69 1.154l-.608.036-.047.333.678-.012c.476-.012.821-.024 1.012-.024.226 0 .595.012 1.059.024l.523.012.036-.333-.702-.036c-.31-.012-.428-.107-.428-.357 0-.107.011-.19.047-.416zm5.748-.512c-1.844 0-2.784 1.464-2.784 4.344 0 1.392.25 2.594.666 3.177a2.206 2.206 0 001.821.916c1.797 0 2.701-1.547 2.701-4.593 0-2.606-.773-3.844-2.404-3.844zm-.214.417c1.155 0 1.619 1.166 1.619 4.022 0 2.535-.453 3.582-1.547 3.582-1.155 0-1.643-1.202-1.643-4.106 0-2.51.44-3.498 1.571-3.498z" stroke="#E2E2E2" stroke-width=".095" fill="#E2E2E2"/><path d="M3.836 38.774c0 1.445.646 2.244 2.074 2.584l1.615.391c.918.221 1.377.816 1.377 1.785 0 1.615-1.207 2.737-2.958 2.737-.918 0-1.564-.204-2.312-.73v-1.684h-.51c-.102.935-.221 1.7-.408 2.584a5.8 5.8 0 002.635.646c2.635 0 4.896-1.989 4.896-4.284 0-1.343-.731-2.057-2.448-2.43l-1.105-.239c-1.122-.238-1.632-.867-1.632-1.989 0-1.479 1.139-2.55 2.703-2.55.833 0 1.394.221 1.904.765v1.292h.51c.068-.918.187-1.564.425-2.295-.765-.408-1.445-.578-2.244-.578-2.108 0-4.522 1.564-4.522 3.995z" stroke="#E2E2E2" stroke-width=".136" fill="#E2E2E2"/><path d="M16.578 42.103h.87c.927 0 1.356.06 1.391.203.036.095.06.32.048.44l-.048.761h.334l.321-1.951-1.083.012c-1.047.012-1.856.024-2.273.024-.44 0-1.202-.012-2.225-.024l-1.13-.012-.215 1.951h.345l.179-.714c.06-.261.143-.452.214-.535.071-.083.524-.155.964-.155h1.333l-1.024 6.2c-.19 1.083-.214 1.119-.69 1.154l-.607.036-.047.333.678-.012c.476-.011.821-.023 1.011-.023.227 0 .595.012 1.06.023l.523.012.036-.333-.702-.036c-.31-.011-.429-.107-.429-.357 0-.107.012-.19.048-.416z" stroke="#E2E2E2" stroke-width=".095" fill="#E2E2E2"/><path d="M33.044 42.65v-.952h-8.568v.952zm6.089-3.876c0 1.445.646 2.244 2.074 2.584l1.615.391c.918.221 1.377.816 1.377 1.785 0 1.615-1.207 2.737-2.958 2.737-.918 0-1.564-.204-2.312-.73v-1.684h-.51c-.102.935-.221 1.7-.408 2.584a5.8 5.8 0 002.635.646c2.635 0 4.896-1.989 4.896-4.284 0-1.343-.731-2.057-2.448-2.43l-1.105-.239c-1.122-.238-1.632-.867-1.632-1.989 0-1.479 1.139-2.55 2.703-2.55.833 0 1.394.221 1.904.765v1.292h.51c.068-.918.187-1.564.425-2.295-.765-.408-1.445-.578-2.244-.578-2.108 0-4.522 1.564-4.522 3.995z" stroke="#E2E2E2" stroke-width=".136" fill="#E2E2E2"/><path d="M48.484 41.889l.654.024c.286.012.417.107.417.321l-.988 6.07c-.202 1.082-.214 1.118-.69 1.153l-.488.036-.048.333.5-.012c.488-.011.857-.023 1.071-.023.203 0 .548.012 1.024.023l.63.012.036-.333-.773-.036c-.31-.011-.429-.107-.429-.357 0-.107.012-.19.048-.416l1.166-6.605c.428-.071.619-.095.845-.095 1.214 0 1.797.524 1.797 1.63 0 1.286-.857 2.333-1.904 2.333-.262 0-.5-.06-.94-.226l.023.369c.44.214.679.273 1.024.273 1.535 0 2.844-1.392 2.844-3.01 0-1.202-.75-1.833-2.166-1.797H48.52z" stroke="#E2E2E2" stroke-width=".095" fill="#E2E2E2"/><path fill="none" stroke="#e2e2e2" d="M2 29.141h53.516"/><path d="M72.565 27.492v-1.003h-9.163v1.003zm0 3.62V30.11h-9.163v1.003zm8.31-4.352l-.952 4.812c-.017.136-.221.782-.221 1.292 0 .425.187.68.51.68.595 0 1.19-.34 2.516-1.411l.527-.425-.17-.306-.765.527c-.493.34-.833.51-1.02.51-.153 0-.238-.136-.238-.34 0-.442.238-1.82.731-4.284l.221-1.054h1.819l.187-.85a17.23 17.23 0 01-1.87.102c.272-1.598.459-2.431.765-3.35l-.187-.254c-.34.204-.799.408-1.326.612l-.425 2.89c-.748.357-1.19.544-1.496.629l-.034.22z" stroke="#E2E2E2" stroke-width=".136" fill="#E2E2E2"/></svg>