<svg xmlns="http://www.w3.org/2000/svg" width="180.859" height="67.891" style="width:180.859375px;height:67.890625px;background:0 0" font-family="Asana-Math,Asana"><path d="M7.372 33.442c1.224 0 2.057-.187 2.941-.63 2.652-1.36 4.284-3.926 4.284-6.748 0-1.666-.51-2.856-1.547-3.587-.782-.561-2.227-.867-3.842-.85l-3.468.05h-.17c-.153 0-.204 0-1.921-.05l-.051.476.901.034c.408.017.595.153.595.459 0 .238-.068.782-.153 1.292l-1.479 8.568c-.085.408-.51.442-.901.544l-.085.442 1.581-.051h.935c.595 0 1.802.05 2.38.05zm1.156-11.186c3.094 0 4.505 1.292 4.505 4.08 0 3.23-1.7 6.358-5.44 6.358-.748 0-1.581-.085-2.737-.255 0-.204.017-.323.068-.63l1.632-9.468c.391 0 1.377-.085 1.972-.085z" stroke="#E2E2E2" stroke-width=".136" fill="#E2E2E2"/><path d="M16.968 28.498l.655.024c.285.012.416.107.416.321l-.987 6.07c-.203 1.082-.215 1.118-.69 1.154l-.489.036-.047.333.5-.012c.488-.012.856-.024 1.07-.024.203 0 .548.012 1.024.024l.63.012.036-.334-.773-.035c-.31-.012-.428-.107-.428-.357 0-.107.011-.19.047-.417l1.166-6.604c.429-.072.62-.095.845-.095 1.214 0 1.797.523 1.797 1.63 0 1.285-.857 2.332-1.904 2.332-.262 0-.5-.06-.94-.226l.024.37c.44.213.678.273 1.023.273 1.535 0 2.844-1.392 2.844-3.01 0-1.203-.75-1.834-2.165-1.798h-3.618z" stroke="#E2E2E2" stroke-width=".095" fill="#E2E2E2"/><path d="M39.362 27.492v-1.003h-9.163v1.003zm0 3.62V30.11h-9.163v1.003zm10.864-11.925c.952 0 2.907-1.241 3.638-2.312.697-1.037 1.275-2.907 1.275-4.182 0-1.139-.39-1.887-1.003-1.887-.714 0-1.615.442-2.499 1.241-.697.595-1.037 1.037-1.649 2.04l.408-2.023a4.57 4.57 0 00.085-.748c0-.323-.136-.51-.374-.51-.357 0-1.003.357-2.26 1.258l-.477.34.12.34.543-.357c.476-.306.663-.391.816-.391.17 0 .29.153.29.391 0 .136-.035.476-.069.646l-.986 5.831c-.17 1.02-.493 2.567-.833 4.097l-.136.629.12.102a7.105 7.105 0 011.24-.289l.714-4.454c.357.119.731.238 1.037.238zm-.56-2.992c.373-2.176 2.192-4.403 3.603-4.403.442 0 .646.374.646 1.156 0 1.377-.68 3.4-1.58 4.692-.34.493-.885.748-1.582.748-.527 0-.952-.119-1.394-.391zm6.34.221c0 1.802.765 2.771 2.176 2.771.935 0 1.955-.442 2.72-1.156 1.054-1.003 1.802-2.941 1.802-4.658 0-1.598-.85-2.567-2.26-2.567-1.769 0-4.438 1.7-4.438 5.61zm3.808-4.964c1.037 0 1.598.765 1.598 2.193 0 1.632-.527 3.434-1.275 4.335-.306.357-.748.561-1.275.561-.986 0-1.564-.765-1.564-2.108 0-1.921.663-4.012 1.496-4.692.221-.187.612-.289 1.02-.289zm3.961 5.032a15.07 15.07 0 01-.374 2.244c.646.306 1.224.459 1.82.459.832 0 1.614-.306 2.481-.986.867-.68 1.224-1.309 1.224-2.159 0-.918-.544-1.411-1.802-1.649l-.73-.136c-1.02-.187-1.344-.476-1.344-1.173 0-.901.765-1.598 1.734-1.598.697 0 1.343.306 1.615.765v.935h.391c.068-.595.136-1.054.323-1.921-.663-.323-1.139-.459-1.7-.459-.884 0-1.92.51-2.737 1.326-.442.459-.629.884-.629 1.496 0 .952.527 1.496 1.65 1.717l1.07.204c.748.136 1.02.442 1.02 1.105 0 1.105-.782 1.853-1.989 1.853a2.366 2.366 0 01-1.598-.595v-1.428z" stroke="#E2E2E2" stroke-width=".136" fill="#E2E2E2"/><path d="M75 14.322h.87c.927 0 1.356.06 1.391.202.036.095.06.322.048.44l-.048.762h.334l.32-1.951-1.082.011c-1.047.012-1.856.024-2.273.024-.44 0-1.202-.012-2.225-.024l-1.13-.011-.215 1.951h.345l.179-.714c.06-.262.142-.452.214-.535.071-.084.523-.155.964-.155h1.333L73 20.522c-.19 1.083-.214 1.118-.69 1.154l-.607.036-.048.333.679-.012c.476-.012.82-.024 1.011-.024.226 0 .595.012 1.06.024l.523.012.036-.333-.702-.036c-.31-.012-.429-.107-.429-.357 0-.107.012-.19.048-.416zm5.748-.512c-1.844 0-2.785 1.464-2.785 4.344 0 1.392.25 2.594.667 3.177a2.206 2.206 0 001.82.916c1.797 0 2.702-1.547 2.702-4.593 0-2.606-.774-3.844-2.404-3.844zm-.214.417c1.154 0 1.618 1.166 1.618 4.022 0 2.535-.452 3.582-1.547 3.582-1.154 0-1.642-1.202-1.642-4.106 0-2.51.44-3.498 1.57-3.498z" stroke="#E2E2E2" stroke-width=".095" fill="#E2E2E2"/><path d="M97.404 14.869v-.952h-8.568v.952zm7.244 4.318c.952 0 2.907-1.241 3.638-2.312.697-1.037 1.275-2.907 1.275-4.182 0-1.139-.39-1.887-1.003-1.887-.714 0-1.615.442-2.499 1.241-.697.595-1.037 1.037-1.649 2.04l.408-2.023a4.57 4.57 0 00.085-.748c0-.323-.136-.51-.374-.51-.357 0-1.003.357-2.26 1.258l-.477.34.12.34.543-.357c.476-.306.663-.391.816-.391.17 0 .29.153.29.391 0 .136-.035.476-.069.646l-.986 5.831c-.17 1.02-.493 2.567-.833 4.097l-.136.629.12.102a7.105 7.105 0 011.24-.289l.714-4.454c.357.119.731.238 1.037.238zm-.56-2.992c.373-2.176 2.192-4.403 3.603-4.403.442 0 .646.374.646 1.156 0 1.377-.68 3.4-1.58 4.692-.34.493-.885.748-1.582.748-.527 0-.952-.119-1.394-.391zm6.34.221c0 1.802.765 2.771 2.176 2.771.935 0 1.955-.442 2.72-1.156 1.054-1.003 1.802-2.941 1.802-4.658 0-1.598-.85-2.567-2.26-2.567-1.769 0-4.438 1.7-4.438 5.61zm3.808-4.964c1.037 0 1.598.765 1.598 2.193 0 1.632-.527 3.434-1.275 4.335-.306.357-.748.561-1.275.561-.986 0-1.564-.765-1.564-2.108 0-1.921.663-4.012 1.496-4.692.221-.187.612-.289 1.02-.289zm3.961 5.032a15.07 15.07 0 01-.374 2.244c.646.306 1.224.459 1.82.459.832 0 1.614-.306 2.481-.986.867-.68 1.224-1.309 1.224-2.159 0-.918-.544-1.411-1.802-1.649l-.73-.136c-1.02-.187-1.344-.476-1.344-1.173 0-.901.765-1.598 1.734-1.598.697 0 1.343.306 1.615.765v.935h.391c.068-.595.136-1.054.323-1.921-.663-.323-1.139-.459-1.7-.459-.884 0-1.92.51-2.737 1.326-.442.459-.629.884-.629 1.496 0 .952.527 1.496 1.65 1.717l1.07.204c.748.136 1.02.442 1.02 1.105 0 1.105-.782 1.853-1.989 1.853a2.366 2.366 0 01-1.598-.595v-1.428z" stroke="#E2E2E2" stroke-width=".136" fill="#E2E2E2"/><path d="M126.03 14.108l.655.024c.286.011.417.107.417.32l-.988 6.07c-.202 1.083-.214 1.118-.69 1.154l-.488.036-.048.333.5-.012c.488-.012.857-.024 1.071-.024.202 0 .548.012 1.024.024l.63.012.036-.333-.774-.036c-.309-.012-.428-.107-.428-.357 0-.107.012-.19.048-.416l1.166-6.605c.428-.071.619-.095.845-.095 1.214 0 1.797.524 1.797 1.63 0 1.285-.857 2.333-1.904 2.333-.262 0-.5-.06-.94-.226l.023.368c.44.215.679.274 1.024.274 1.535 0 2.844-1.392 2.844-3.01 0-1.202-.75-1.833-2.166-1.797h-3.618zm9.14-.298c-1.845 0-2.785 1.464-2.785 4.344 0 1.392.25 2.594.667 3.177a2.206 2.206 0 001.82.916c1.797 0 2.702-1.547 2.702-4.593 0-2.606-.774-3.844-2.404-3.844zm-.214.417c1.154 0 1.618 1.166 1.618 4.022 0 2.535-.452 3.582-1.547 3.582-1.154 0-1.642-1.202-1.642-4.106 0-2.51.44-3.498 1.57-3.498z" stroke="#E2E2E2" stroke-width=".095" fill="#E2E2E2"/><path d="M78.885 42.422c.714 0 2.18-.931 2.728-1.734.523-.778.956-2.18.956-3.137 0-.854-.293-1.415-.752-1.415-.535 0-1.211.331-1.874.93-.523.447-.778.778-1.237 1.53l.306-1.517c.038-.216.064-.408.064-.56 0-.243-.102-.383-.28-.383-.268 0-.753.268-1.696.943l-.357.255.089.255.408-.267c.357-.23.497-.294.612-.294.127 0 .217.115.217.294 0 .102-.026.357-.051.484l-.74 4.373c-.127.765-.37 1.926-.625 3.073l-.102.472.09.076c.267-.089.522-.153.93-.216l.536-3.341c.268.09.548.179.778.179zm-.421-2.244c.28-1.632 1.645-3.303 2.703-3.303.331 0 .484.28.484.867 0 1.033-.51 2.55-1.185 3.52-.255.369-.663.56-1.186.56a1.88 1.88 0 01-1.046-.293zm4.756.165c0 1.352.573 2.079 1.632 2.079.7 0 1.466-.332 2.04-.867.79-.753 1.351-2.206 1.351-3.494 0-1.198-.637-1.925-1.696-1.925-1.326 0-3.327 1.275-3.327 4.207zm2.856-3.723c.777 0 1.198.574 1.198 1.645 0 1.224-.395 2.576-.956 3.251-.23.268-.561.421-.956.421-.74 0-1.173-.574-1.173-1.581 0-1.44.497-3.009 1.122-3.519.165-.14.459-.217.765-.217zm2.97 3.774c-.063.65-.14 1.097-.28 1.683.484.23.918.345 1.364.345.625 0 1.211-.23 1.862-.74.65-.51.918-.982.918-1.62 0-.688-.408-1.057-1.352-1.236l-.548-.102c-.765-.14-1.007-.357-1.007-.88 0-.675.573-1.198 1.3-1.198.523 0 1.007.23 1.211.574v.7h.294c.05-.445.102-.79.242-1.44-.497-.242-.854-.344-1.275-.344-.663 0-1.44.382-2.053.994-.331.345-.472.663-.472 1.122 0 .714.396 1.122 1.237 1.288l.803.153c.561.102.765.332.765.829 0 .829-.586 1.39-1.491 1.39a1.77 1.77 0 01-1.199-.447v-1.07z" stroke="#E2E2E2" stroke-width=".102" fill="#E2E2E2"/><path d="M94.948 40.33c0 .76.34 1.179 1.09 1.357l.847.206c.482.116.723.428.723.937 0 .848-.634 1.437-1.553 1.437-.482 0-.821-.107-1.214-.384v-.884h-.268c-.053.491-.116.893-.214 1.357.438.223.91.339 1.384.339 1.383 0 2.57-1.044 2.57-2.25 0-.704-.384-1.079-1.285-1.275l-.58-.125c-.59-.125-.857-.455-.857-1.045 0-.776.598-1.338 1.419-1.338.437 0 .732.116 1 .401v.679h.267a4.76 4.76 0 01.223-1.205 2.367 2.367 0 00-1.178-.304c-1.106 0-2.374.821-2.374 2.098zm7.47-1.561h.652c.696 0 1.017.044 1.044.152a.989.989 0 01.036.33l-.036.571h.25l.241-1.464-.812.01c-.785.008-1.392.017-1.705.017-.33 0-.901-.009-1.669-.018l-.848-.009-.16 1.464h.259l.133-.536c.045-.196.108-.339.161-.401.054-.063.393-.116.723-.116h1l-.768 4.65c-.143.812-.16.839-.518.865l-.455.027-.035.25.508-.009c.357-.009.616-.018.759-.018.17 0 .446.01.794.018l.393.01.027-.25-.527-.028c-.232-.008-.321-.08-.321-.267 0-.08.009-.143.036-.313zm4.311-.384c-1.383 0-2.088 1.098-2.088 3.258 0 1.044.187 1.945.5 2.383.312.437.812.687 1.365.687 1.348 0 2.026-1.16 2.026-3.445 0-1.955-.58-2.883-1.803-2.883zm-.16.312c.865 0 1.213.875 1.213 3.017 0 1.901-.339 2.686-1.16 2.686-.866 0-1.231-.9-1.231-3.079 0-1.883.33-2.624 1.178-2.624z" stroke="#E2E2E2" stroke-width=".071" fill="#E2E2E2"/><path d="M76.97 55.604c0 1.084.485 1.683 1.556 1.938l1.211.293c.689.166 1.033.612 1.033 1.34 0 1.21-.905 2.052-2.218 2.052-.689 0-1.173-.153-1.734-.548v-1.263h-.383a18.625 18.625 0 01-.306 1.938 4.35 4.35 0 001.976.485c1.977 0 3.672-1.492 3.672-3.213 0-1.007-.548-1.543-1.836-1.823l-.828-.179c-.842-.178-1.224-.65-1.224-1.492 0-1.109.854-1.912 2.027-1.912.625 0 1.045.166 1.428.574v.969h.382c.051-.689.14-1.173.32-1.722-.575-.306-1.085-.433-1.684-.433-1.58 0-3.391 1.173-3.391 2.996z" stroke="#E2E2E2" stroke-width=".102" fill="#E2E2E2"/><path d="M86.528 59.097h.651c.696 0 1.018.045 1.044.152a.989.989 0 01.036.33l-.036.571h.25l.241-1.464-.812.01c-.785.008-1.392.017-1.705.017-.33 0-.901-.009-1.669-.018l-.847-.009-.161 1.464h.259l.134-.535c.044-.197.107-.34.16-.402.054-.063.393-.116.723-.116h1l-.768 4.65c-.143.812-.16.839-.517.866l-.456.026-.035.25.508-.009c.357-.009.616-.018.76-.018.169 0 .445.01.793.018l.393.01.027-.25-.527-.027c-.232-.01-.321-.08-.321-.268 0-.08.009-.143.036-.313z" stroke="#E2E2E2" stroke-width=".071" fill="#E2E2E2"/><path d="M96.326 58.511v-.714H89.9v.714zm2.015-2.907c0 1.084.484 1.683 1.555 1.938l1.211.293c.689.166 1.033.612 1.033 1.34 0 1.21-.905 2.052-2.218 2.052-.689 0-1.173-.153-1.734-.548v-1.263h-.383a18.625 18.625 0 01-.306 1.938 4.35 4.35 0 001.977.485c1.976 0 3.671-1.492 3.671-3.213 0-1.007-.548-1.543-1.836-1.823l-.828-.179c-.842-.178-1.224-.65-1.224-1.492 0-1.109.854-1.912 2.027-1.912.625 0 1.045.166 1.428.574v.969h.382c.051-.689.14-1.173.32-1.722-.575-.306-1.085-.433-1.684-.433-1.58 0-3.391 1.173-3.391 2.996z" stroke="#E2E2E2" stroke-width=".102" fill="#E2E2E2"/><path d="M105.359 58.936l.49.018c.215.01.313.08.313.241l-.74 4.552c-.152.812-.161.839-.518.866l-.366.026-.036.25.375-.009c.366-.009.643-.018.803-.018.152 0 .41.01.768.018l.473.01.027-.25-.58-.027c-.233-.01-.322-.08-.322-.268 0-.08.01-.143.036-.313l.875-4.953c.32-.053.464-.071.633-.071.91 0 1.348.392 1.348 1.222 0 .964-.643 1.75-1.428 1.75-.196 0-.375-.045-.705-.17l.018.277c.33.16.508.205.767.205 1.152 0 2.133-1.044 2.133-2.258 0-.901-.562-1.374-1.624-1.348h-2.713z" stroke="#E2E2E2" stroke-width=".071" fill="#E2E2E2"/><path fill="none" stroke="#e2e2e2" d="M75.594 49.609h35.031M47.234 29.141H139"/><path d="M154.346 29.294V28.29h-4.08v-4.046h-1.003v4.046h-4.08v1.003h4.08v4.097h1.003v-4.097zm9.752 2.465l-1.207-8.976c-.034-.374.034-.63.714-.646l.714-.034v-.476l-.697.017c-.629.017-1.105.034-1.41.034-.307 0-.783-.017-1.412-.034l-.697-.017v.476l.425.034c.748.05.884.187 1.003.816l1.496 10.574h.833l6.426-10.523c.425-.68.561-.8 1.054-.867l.306-.034v-.476l-.51.017c-.459.017-.85.034-1.122.034-.17 0-.629-.017-1.326-.034l-.782-.017v.476l.442.034c.646.05.97.22.97.544 0 .187-.069.374-.273.714z" stroke="#E2E2E2" stroke-width=".136" fill="#E2E2E2"/><path d="M176.235 28.713h.868c.929 0 1.357.06 1.393.202.035.095.06.321.047.44l-.047.762h.333l.321-1.952-1.083.012c-1.047.012-1.856.024-2.273.024-.44 0-1.201-.012-2.225-.024l-1.13-.012-.215 1.952h.346l.178-.714c.06-.262.143-.452.214-.536.072-.083.524-.154.964-.154h1.333l-1.023 6.2c-.19 1.082-.215 1.118-.69 1.154l-.608.036-.047.333.678-.012c.476-.012.821-.024 1.012-.024.226 0 .595.012 1.059.024l.523.012.036-.333-.702-.036c-.31-.012-.428-.107-.428-.357 0-.107.011-.19.047-.417z" stroke="#E2E2E2" stroke-width=".095" fill="#E2E2E2"/></svg>