<svg xmlns="http://www.w3.org/2000/svg" width="266.625" height="54.172" style="width:266.625px;height:54.171875px;background:0 0" font-family="Asana-Math,Asana"><path d="M4.482 14.478c0-4.42 1.649-6.222 2.635-7.378l-.323-.442c-.969.867-3.774 3.128-3.774 7.82 0 1.819.425 3.536 1.241 5.066.595 1.139 1.139 1.802 2.533 3.111l.323-.357c-.782-.969-2.635-3.043-2.635-7.82zm6.166 4.709c.952 0 2.907-1.241 3.638-2.312.697-1.037 1.275-2.907 1.275-4.182 0-1.139-.39-1.887-1.003-1.887-.714 0-1.615.442-2.499 1.241-.697.595-1.037 1.037-1.649 2.04l.408-2.023a4.57 4.57 0 00.085-.748c0-.323-.136-.51-.374-.51-.357 0-1.003.357-2.26 1.258l-.477.34.12.34.543-.357c.476-.306.663-.391.816-.391.17 0 .29.153.29.391 0 .136-.035.476-.069.646l-.986 5.831c-.17 1.02-.493 2.567-.833 4.097l-.136.629.12.102a7.105 7.105 0 011.24-.289l.714-4.454c.357.119.731.238 1.037.238zm-.56-2.992c.373-2.176 2.192-4.403 3.603-4.403.442 0 .646.374.646 1.156 0 1.377-.68 3.4-1.58 4.692-.34.493-.885.748-1.582.748-.527 0-.952-.119-1.394-.391zm6.34.221c0 1.802.765 2.771 2.176 2.771.935 0 1.955-.442 2.72-1.156 1.054-1.003 1.802-2.941 1.802-4.658 0-1.598-.85-2.567-2.26-2.567-1.769 0-4.438 1.7-4.438 5.61zm3.808-4.964c1.037 0 1.598.765 1.598 2.193 0 1.632-.527 3.434-1.275 4.335-.306.357-.748.561-1.275.561-.986 0-1.564-.765-1.564-2.108 0-1.921.663-4.012 1.496-4.692.221-.187.612-.289 1.02-.289zm3.961 5.032a15.07 15.07 0 01-.374 2.244c.646.306 1.224.459 1.82.459.832 0 1.614-.306 2.481-.986.867-.68 1.224-1.309 1.224-2.159 0-.918-.544-1.411-1.802-1.649l-.73-.136c-1.02-.187-1.344-.476-1.344-1.173 0-.901.765-1.598 1.734-1.598.697 0 1.343.306 1.615.765v.935h.391c.068-.595.136-1.054.323-1.921-.663-.323-1.139-.459-1.7-.459-.884 0-1.92.51-2.737 1.326-.442.459-.629.884-.629 1.496 0 .952.527 1.496 1.65 1.717l1.07.204c.748.136 1.02.442 1.02 1.105 0 1.105-.782 1.853-1.989 1.853a2.366 2.366 0 01-1.598-.595v-1.428z" stroke="#E2E2E2" stroke-width=".136" fill="#E2E2E2"/><path d="M35.422 14.322h.869c.928 0 1.357.06 1.392.202.036.095.06.322.048.44l-.048.762h.333l.322-1.951-1.083.011c-1.047.012-1.857.024-2.273.024-.44 0-1.202-.012-2.225-.024l-1.13-.011-.215 1.951h.345l.179-.714c.059-.262.142-.452.214-.535.071-.084.523-.155.964-.155h1.332l-1.023 6.2c-.19 1.083-.214 1.118-.69 1.154l-.607.036-.048.333.679-.012c.476-.012.82-.024 1.011-.024.226 0 .595.012 1.06.024l.523.012.036-.333-.703-.036c-.309-.012-.428-.107-.428-.357 0-.107.012-.19.048-.416zm5.748-.512c-1.845 0-2.785 1.464-2.785 4.344 0 1.392.25 2.594.667 3.177a2.206 2.206 0 001.82.916c1.797 0 2.702-1.547 2.702-4.593 0-2.606-.774-3.844-2.404-3.844zm-.214.417c1.154 0 1.618 1.166 1.618 4.022 0 2.535-.452 3.582-1.547 3.582-1.154 0-1.642-1.202-1.642-4.106 0-2.51.44-3.498 1.57-3.498z" stroke="#E2E2E2" stroke-width=".095" fill="#E2E2E2"/><path d="M57.826 14.869v-.952h-8.568v.952zm7.244 4.318c.952 0 2.907-1.241 3.638-2.312.697-1.037 1.275-2.907 1.275-4.182 0-1.139-.39-1.887-1.003-1.887-.714 0-1.615.442-2.499 1.241-.697.595-1.037 1.037-1.649 2.04l.408-2.023a4.57 4.57 0 00.085-.748c0-.323-.136-.51-.374-.51-.357 0-1.003.357-2.26 1.258l-.477.34.12.34.543-.357c.476-.306.663-.391.816-.391.17 0 .29.153.29.391 0 .136-.035.476-.069.646l-.986 5.831c-.17 1.02-.493 2.567-.833 4.097l-.136.629.12.102a7.105 7.105 0 011.24-.289l.714-4.454c.357.119.731.238 1.037.238zm-.56-2.992c.373-2.176 2.192-4.403 3.603-4.403.442 0 .646.374.646 1.156 0 1.377-.68 3.4-1.58 4.692-.34.493-.885.748-1.582.748-.527 0-.952-.119-1.394-.391zm6.34.221c0 1.802.765 2.771 2.176 2.771.935 0 1.955-.442 2.72-1.156 1.054-1.003 1.802-2.941 1.802-4.658 0-1.598-.85-2.567-2.26-2.567-1.769 0-4.438 1.7-4.438 5.61zm3.808-4.964c1.037 0 1.598.765 1.598 2.193 0 1.632-.527 3.434-1.275 4.335-.306.357-.748.561-1.275.561-.986 0-1.564-.765-1.564-2.108 0-1.921.663-4.012 1.496-4.692.221-.187.612-.289 1.02-.289zm3.961 5.032a15.07 15.07 0 01-.374 2.244c.646.306 1.224.459 1.82.459.832 0 1.614-.306 2.481-.986.867-.68 1.224-1.309 1.224-2.159 0-.918-.544-1.411-1.802-1.649l-.73-.136c-1.02-.187-1.344-.476-1.344-1.173 0-.901.765-1.598 1.734-1.598.697 0 1.343.306 1.615.765v.935h.391c.068-.595.136-1.054.323-1.921-.663-.323-1.139-.459-1.7-.459-.884 0-1.92.51-2.737 1.326-.442.459-.629.884-.629 1.496 0 .952.527 1.496 1.65 1.717l1.07.204c.748.136 1.02.442 1.02 1.105 0 1.105-.782 1.853-1.989 1.853a2.366 2.366 0 01-1.598-.595v-1.428z" stroke="#E2E2E2" stroke-width=".136" fill="#E2E2E2"/><path d="M86.453 14.108l.654.024c.286.011.417.107.417.32l-.988 6.07c-.202 1.083-.214 1.118-.69 1.154l-.488.036-.048.333.5-.012c.488-.012.857-.024 1.071-.024.202 0 .547.012 1.023.024l.631.012.036-.333-.774-.036c-.31-.012-.428-.107-.428-.357 0-.107.012-.19.048-.416l1.166-6.605c.428-.071.619-.095.845-.095 1.213 0 1.797.524 1.797 1.63 0 1.285-.857 2.333-1.904 2.333-.262 0-.5-.06-.94-.226l.023.368c.44.215.679.274 1.024.274 1.535 0 2.844-1.392 2.844-3.01 0-1.202-.75-1.833-2.166-1.797h-3.618zm9.139-.298c-1.845 0-2.785 1.464-2.785 4.344 0 1.392.25 2.594.667 3.177a2.206 2.206 0 001.82.916c1.797 0 2.702-1.547 2.702-4.593 0-2.606-.774-3.844-2.404-3.844zm-.214.417c1.154 0 1.618 1.166 1.618 4.022 0 2.535-.452 3.582-1.547 3.582-1.154 0-1.642-1.202-1.642-4.106 0-2.51.44-3.498 1.57-3.498z" stroke="#E2E2E2" stroke-width=".095" fill="#E2E2E2"/><path d="M100.289 6.658l-.323.442c.935 1.088 2.635 2.958 2.635 7.378 0 4.692-1.768 6.749-2.635 7.82l.323.357c.9-.85 3.774-3.264 3.774-8.16 0-4.709-2.805-6.97-3.774-7.837zm7.271 7.82c0-4.42 1.65-6.222 2.635-7.378l-.323-.442c-.969.867-3.774 3.128-3.774 7.82 0 1.819.425 3.536 1.241 5.066.595 1.139 1.14 1.802 2.533 3.111l.323-.357c-.782-.969-2.635-3.043-2.635-7.82zm5.01-3.485c0 1.445.646 2.244 2.074 2.584l1.615.391c.918.221 1.377.816 1.377 1.785 0 1.615-1.207 2.737-2.958 2.737-.918 0-1.564-.204-2.312-.731v-1.683h-.51c-.102.935-.22 1.7-.408 2.584a5.8 5.8 0 002.635.646c2.635 0 4.896-1.989 4.896-4.284 0-1.343-.73-2.057-2.448-2.431l-1.105-.238c-1.122-.238-1.632-.867-1.632-1.989 0-1.479 1.14-2.55 2.703-2.55.833 0 1.394.221 1.904.765v1.292h.51c.068-.918.187-1.564.425-2.295-.765-.408-1.445-.578-2.244-.578-2.108 0-4.522 1.564-4.522 3.995z" stroke="#E2E2E2" stroke-width=".136" fill="#E2E2E2"/><path d="M125.313 14.322h.869c.928 0 1.356.06 1.392.202.036.095.06.322.047.44l-.047.762h.333l.321-1.951-1.083.011c-1.047.012-1.856.024-2.272.024-.44 0-1.202-.012-2.226-.024l-1.13-.011-.214 1.951h.345l.178-.714c.06-.262.143-.452.214-.535.072-.084.524-.155.964-.155h1.333l-1.023 6.2c-.19 1.083-.215 1.118-.69 1.154l-.607.036-.048.333.678-.012c.476-.012.821-.024 1.012-.024.226 0 .595.012 1.059.024l.523.012.036-.333-.702-.036c-.31-.012-.428-.107-.428-.357 0-.107.012-.19.047-.416z" stroke="#E2E2E2" stroke-width=".095" fill="#E2E2E2"/><path d="M141.779 14.869v-.952h-8.568v.952zm6.088-3.876c0 1.445.646 2.244 2.074 2.584l1.615.391c.918.221 1.377.816 1.377 1.785 0 1.615-1.207 2.737-2.958 2.737-.918 0-1.564-.204-2.312-.731v-1.683h-.51c-.102.935-.22 1.7-.408 2.584a5.8 5.8 0 002.635.646c2.635 0 4.896-1.989 4.896-4.284 0-1.343-.73-2.057-2.448-2.431l-1.105-.238c-1.122-.238-1.632-.867-1.632-1.989 0-1.479 1.14-2.55 2.703-2.55.833 0 1.394.221 1.904.765v1.292h.51c.068-.918.187-1.564.425-2.295-.765-.408-1.445-.578-2.244-.578-2.108 0-4.522 1.564-4.522 3.995z" stroke="#E2E2E2" stroke-width=".136" fill="#E2E2E2"/><path d="M157.218 14.108l.655.024c.285.011.416.107.416.32l-.987 6.07c-.203 1.083-.215 1.118-.69 1.154l-.489.036-.047.333.5-.012c.488-.012.856-.024 1.07-.024.203 0 .548.012 1.024.024l.63.012.036-.333-.773-.036c-.31-.012-.428-.107-.428-.357 0-.107.011-.19.047-.416l1.166-6.605c.429-.071.62-.095.845-.095 1.214 0 1.797.524 1.797 1.63 0 1.285-.857 2.333-1.904 2.333-.262 0-.5-.06-.94-.226l.024.368c.44.215.678.274 1.023.274 1.535 0 2.844-1.392 2.844-3.01 0-1.202-.75-1.833-2.165-1.797h-3.618z" stroke="#E2E2E2" stroke-width=".095" fill="#E2E2E2"/><path d="M165.117 6.658l-.323.442c.935 1.088 2.635 2.958 2.635 7.378 0 4.692-1.768 6.749-2.635 7.82l.323.357c.901-.85 3.774-3.264 3.774-8.16 0-4.709-2.805-6.97-3.774-7.837z" stroke="#E2E2E2" stroke-width=".136" fill="#E2E2E2"/><g stroke="#E2E2E2" fill="#E2E2E2"><path d="M57.352 38.774c0 1.445.646 2.244 2.074 2.584l1.615.391c.918.221 1.377.816 1.377 1.785 0 1.615-1.207 2.737-2.958 2.737-.918 0-1.564-.204-2.312-.73v-1.684h-.51c-.102.935-.221 1.7-.408 2.584a5.8 5.8 0 002.635.646c2.635 0 4.896-1.989 4.896-4.284 0-1.343-.731-2.057-2.448-2.43l-1.105-.239c-1.122-.238-1.632-.867-1.632-1.989 0-1.479 1.139-2.55 2.703-2.55.833 0 1.394.221 1.904.765v1.292h.51c.068-.918.187-1.564.425-2.295-.765-.408-1.445-.578-2.244-.578-2.108 0-4.522 1.564-4.522 3.995z" stroke-width=".136"/><path d="M67.548 49.922c.666 0 2.034-.87 2.546-1.619.488-.726.893-2.035.893-2.927 0-.798-.274-1.321-.702-1.321-.5 0-1.131.31-1.75.869-.488.416-.726.725-1.154 1.428l.286-1.417c.035-.202.059-.38.059-.523 0-.226-.095-.357-.262-.357-.25 0-.702.25-1.582.88l-.334.238.084.238.38-.25c.334-.214.465-.273.572-.273.119 0 .202.107.202.274 0 .095-.024.333-.048.452l-.69 4.081a62.201 62.201 0 01-.583 2.868l-.095.44.083.072a4.96 4.96 0 01.869-.202l.5-3.118c.25.083.511.167.726.167zm-.393-2.095c.262-1.523 1.535-3.082 2.523-3.082.309 0 .452.262.452.81 0 .963-.476 2.38-1.107 3.284-.238.345-.619.523-1.107.523-.368 0-.666-.083-.975-.273z" stroke-width=".095"/><path d="M75.414 46.968c.952 0 2.907-1.24 3.638-2.312.697-1.037 1.275-2.907 1.275-4.182 0-1.139-.391-1.887-1.003-1.887-.714 0-1.615.442-2.5 1.241-.696.595-1.036 1.037-1.648 2.04l.408-2.023a4.57 4.57 0 00.085-.748c0-.323-.136-.51-.374-.51-.357 0-1.003.357-2.261 1.258l-.476.34.119.34.544-.357c.476-.306.663-.39.816-.39.17 0 .289.152.289.39 0 .136-.034.476-.068.646l-.986 5.831c-.17 1.02-.493 2.567-.833 4.097l-.136.63.119.101a7.105 7.105 0 011.24-.289l.715-4.454c.357.12.73.238 1.037.238zm-.561-2.992c.374-2.176 2.193-4.403 3.604-4.403.442 0 .646.374.646 1.156 0 1.377-.68 3.4-1.581 4.692-.34.493-.884.748-1.581.748-.527 0-.952-.119-1.394-.39zm6.34.221c0 1.802.766 2.771 2.177 2.771.935 0 1.955-.442 2.72-1.156 1.054-1.003 1.802-2.94 1.802-4.658 0-1.598-.85-2.567-2.261-2.567-1.768 0-4.437 1.7-4.437 5.61zm3.809-4.964c1.037 0 1.598.765 1.598 2.193 0 1.632-.527 3.434-1.275 4.335-.306.357-.748.561-1.275.561-.986 0-1.564-.765-1.564-2.108 0-1.92.663-4.012 1.496-4.692.22-.187.612-.289 1.02-.289zm3.96 5.032a15.07 15.07 0 01-.373 2.244c.646.306 1.224.46 1.819.46.833 0 1.615-.307 2.482-.987.867-.68 1.224-1.309 1.224-2.159 0-.918-.544-1.41-1.802-1.649l-.731-.136c-1.02-.187-1.343-.476-1.343-1.173 0-.9.765-1.598 1.734-1.598.697 0 1.343.306 1.615.765v.935h.39c.069-.595.137-1.054.324-1.92-.663-.324-1.14-.46-1.7-.46-.884 0-1.921.51-2.737 1.326-.442.46-.63.884-.63 1.496 0 .952.528 1.496 1.65 1.717l1.07.204c.749.136 1.02.442 1.02 1.105 0 1.105-.781 1.853-1.988 1.853a2.366 2.366 0 01-1.598-.595v-1.428z" stroke-width=".136"/><path d="M96.832 44.186c0 1.011.452 1.57 1.452 1.809l1.13.273c.643.155.964.571.964 1.25 0 1.13-.845 1.916-2.07 1.916-.643 0-1.095-.143-1.619-.512v-1.178h-.357c-.071.654-.154 1.19-.285 1.809a4.06 4.06 0 001.844.452c1.845 0 3.427-1.392 3.427-2.999 0-.94-.511-1.44-1.713-1.702l-.774-.166c-.785-.167-1.142-.607-1.142-1.393 0-1.035.797-1.785 1.892-1.785.583 0 .976.155 1.333.536v.904h.357c.047-.642.13-1.094.297-1.606a3.156 3.156 0 00-1.57-.405c-1.476 0-3.166 1.095-3.166 2.797zm9.96-2.083h.87c.927 0 1.356.06 1.391.203.036.095.06.32.048.44l-.048.761h.334l.32-1.951-1.082.012c-1.047.012-1.856.024-2.273.024-.44 0-1.202-.012-2.225-.024l-1.13-.012-.215 1.951h.345l.179-.714c.06-.261.142-.452.214-.535.071-.083.523-.155.964-.155h1.333l-1.024 6.2c-.19 1.083-.214 1.119-.69 1.154l-.607.036-.048.333.679-.012c.476-.011.82-.023 1.011-.023.226 0 .595.012 1.06.023l.523.012.036-.333-.702-.036c-.31-.011-.429-.107-.429-.357 0-.107.012-.19.048-.416zm5.748-.511c-1.844 0-2.785 1.463-2.785 4.343 0 1.392.25 2.594.667 3.177a2.206 2.206 0 001.82.917c1.797 0 2.702-1.547 2.702-4.594 0-2.606-.774-3.843-2.404-3.843zm-.214.416c1.154 0 1.618 1.166 1.618 4.022 0 2.535-.452 3.582-1.547 3.582-1.154 0-1.642-1.202-1.642-4.105 0-2.511.44-3.499 1.57-3.499z" stroke-width=".095"/></g><path fill="none" stroke="#e2e2e2" d="M2 29.141h167.906"/><path d="M185.252 29.294V28.29h-4.08v-4.046h-1.003v4.046h-4.08v1.003h4.08v4.097h1.003v-4.097zm6.964-.425c0-4.42 1.65-6.222 2.635-7.378l-.323-.442c-.969.867-3.774 3.128-3.774 7.82 0 1.819.425 3.536 1.241 5.066.595 1.139 1.14 1.802 2.533 3.11l.323-.356c-.782-.97-2.635-3.043-2.635-7.82zm8.444 2.89l-1.206-8.976c-.034-.374.034-.63.714-.646l.714-.034v-.476l-.697.017c-.63.017-1.105.034-1.411.034-.306 0-.782-.017-1.411-.034l-.697-.017v.476l.425.034c.748.05.884.187 1.003.816l1.496 10.574h.833l6.426-10.523c.425-.68.56-.8 1.054-.867l.306-.034v-.476l-.51.017c-.46.017-.85.034-1.122.034-.17 0-.63-.017-1.326-.034l-.782-.017v.476l.442.034c.646.05.969.22.969.544 0 .187-.068.374-.272.714z" stroke="#E2E2E2" stroke-width=".136" fill="#E2E2E2"/><path d="M212.797 28.713h.869c.928 0 1.357.06 1.392.202.036.095.06.321.048.44l-.048.762h.333l.322-1.952-1.083.012c-1.047.012-1.857.024-2.273.024-.44 0-1.202-.012-2.225-.024l-1.13-.012-.215 1.952h.345l.179-.714c.059-.262.142-.452.214-.536.071-.083.523-.154.964-.154h1.332l-1.023 6.2c-.19 1.082-.214 1.118-.69 1.154l-.607.036-.048.333.679-.012c.476-.012.82-.024 1.011-.024.226 0 .595.012 1.06.024l.523.012.036-.333-.703-.036c-.309-.012-.428-.107-.428-.357 0-.107.012-.19.048-.417z" stroke="#E2E2E2" stroke-width=".095" fill="#E2E2E2"/><path d="M217.304 21.049l-.323.442c.935 1.088 2.635 2.958 2.635 7.378 0 4.692-1.768 6.749-2.635 7.82l.323.357c.901-.85 3.774-3.264 3.774-8.16 0-4.71-2.805-6.97-3.774-7.837zm20.152 6.443v-1.003h-9.163v1.003zm0 3.62V30.11h-9.163v1.003zm11.557 2.33c1.224 0 2.057-.187 2.94-.63 2.653-1.36 4.285-3.926 4.285-6.748 0-1.666-.51-2.856-1.547-3.587-.782-.561-2.227-.867-3.842-.85l-3.468.05h-.17c-.153 0-.204 0-1.921-.05l-.051.476.9.034c.409.017.596.153.596.459 0 .238-.068.782-.153 1.292l-1.48 8.568c-.084.408-.51.442-.9.544l-.085.442 1.58-.051h.936c.595 0 1.802.05 2.38.05zm1.156-11.186c3.094 0 4.505 1.292 4.505 4.08 0 3.23-1.7 6.358-5.44 6.358-.748 0-1.581-.085-2.737-.255 0-.204.017-.323.068-.63l1.632-9.468c.39 0 1.377-.085 1.972-.085z" stroke="#E2E2E2" stroke-width=".136" fill="#E2E2E2"/><path d="M258.609 28.498l.654.024c.286.012.417.107.417.321l-.988 6.07c-.202 1.082-.214 1.118-.69 1.154l-.488.036-.048.333.5-.012c.488-.012.857-.024 1.071-.024.203 0 .548.012 1.024.024l.63.012.036-.334-.773-.035c-.31-.012-.429-.107-.429-.357 0-.107.012-.19.048-.417l1.166-6.604c.428-.072.619-.095.845-.095 1.214 0 1.797.523 1.797 1.63 0 1.285-.857 2.332-1.904 2.332-.262 0-.5-.06-.94-.226l.023.37c.44.213.679.273 1.024.273 1.535 0 2.844-1.392 2.844-3.01 0-1.203-.75-1.834-2.166-1.798h-3.617z" stroke="#E2E2E2" stroke-width=".095" fill="#E2E2E2"/></svg>