<svg xmlns="http://www.w3.org/2000/svg" width="283.953" height="26.391" style="width:283.953125px;height:26.390625px;background:0 0" font-family="Asana-Math,Asana"><path d="M4.992 19.187c.952 0 2.907-1.241 3.638-2.312.697-1.037 1.275-2.907 1.275-4.182 0-1.139-.391-1.887-1.003-1.887-.714 0-1.615.442-2.499 1.241-.697.595-1.037 1.037-1.649 2.04l.408-2.023a4.57 4.57 0 00.085-.748c0-.323-.136-.51-.374-.51-.357 0-1.003.357-2.261 1.258l-.476.34.119.34.544-.357c.476-.306.663-.391.816-.391.17 0 .289.153.289.391 0 .136-.034.476-.068.646l-.986 5.831c-.17 1.02-.493 2.567-.833 4.097l-.136.629.119.102a7.105 7.105 0 011.241-.289l.714-4.454c.357.119.731.238 1.037.238zm-.561-2.992c.374-2.176 2.193-4.403 3.604-4.403.442 0 .646.374.646 1.156 0 1.377-.68 3.4-1.581 4.692-.34.493-.884.748-1.581.748-.527 0-.952-.119-1.394-.391zm6.341.221c0 1.802.765 2.771 2.176 2.771.935 0 1.955-.442 2.72-1.156 1.054-1.003 1.802-2.941 1.802-4.658 0-1.598-.85-2.567-2.261-2.567-1.768 0-4.437 1.7-4.437 5.61zm3.808-4.964c1.037 0 1.598.765 1.598 2.193 0 1.632-.527 3.434-1.275 4.335-.306.357-.748.561-1.275.561-.986 0-1.564-.765-1.564-2.108 0-1.921.663-4.012 1.496-4.692.221-.187.612-.289 1.02-.289zm3.961 5.032a15.07 15.07 0 01-.374 2.244c.646.306 1.224.459 1.819.459.833 0 1.615-.306 2.482-.986.867-.68 1.224-1.309 1.224-2.159 0-.918-.544-1.411-1.802-1.649l-.731-.136c-1.02-.187-1.343-.476-1.343-1.173 0-.901.765-1.598 1.734-1.598.697 0 1.343.306 1.615.765v.935h.391c.068-.595.136-1.054.323-1.921-.663-.323-1.139-.459-1.7-.459-.884 0-1.921.51-2.737 1.326-.442.459-.629.884-.629 1.496 0 .952.527 1.496 1.649 1.717l1.071.204c.748.136 1.02.442 1.02 1.105 0 1.105-.782 1.853-1.989 1.853a2.366 2.366 0 01-1.598-.595v-1.428z" stroke="#E2E2E2" stroke-width=".136" fill="#E2E2E2"/><path d="M29.23 16.81h-.19l.25-1.334c.19-1.023.524-1.475 1.071-1.475.357 0 .678.178.857.464l.119-.048c.06-.19.178-.56.274-.797l.059-.179a2.474 2.474 0 00-.833-.154c-.13 0-.321.035-.416.083-.286.13-1.262.857-1.536 1.142-.261.262-.404.62-.535 1.297l-.179.94a8.99 8.99 0 01-1.023.44l-.06.263h.964l-.107.666c-.357 2.32-.797 4.534-1.059 5.355-.214.702-.571 1.071-1 1.071-.273 0-.404-.083-.618-.345l-.167.048c-.047.273-.214.844-.273.952.107.06.285.095.416.095.488 0 1.13-.37 1.595-.928.845-1 1.083-2.142 2.082-6.914h1.238c.047-.226.13-.5.202-.667l-.048-.083c-.345.083-.333.107-1.082.107z" stroke="#E2E2E2" stroke-width=".095" fill="#E2E2E2"/><path d="M48.05 13.101v-1.003h-9.164v1.003zm0 3.621v-1.003h-9.164v1.003zm9.176 2.465c.952 0 2.907-1.241 3.638-2.312.697-1.037 1.275-2.907 1.275-4.182 0-1.139-.39-1.887-1.003-1.887-.714 0-1.615.442-2.499 1.241-.697.595-1.037 1.037-1.649 2.04l.408-2.023a4.57 4.57 0 00.085-.748c0-.323-.136-.51-.374-.51-.357 0-1.003.357-2.26 1.258l-.477.34.12.34.543-.357c.476-.306.663-.391.816-.391.17 0 .29.153.29.391 0 .136-.035.476-.069.646l-.986 5.831c-.17 1.02-.493 2.567-.833 4.097l-.136.629.12.102a7.105 7.105 0 011.24-.289l.714-4.454c.357.119.731.238 1.037.238zm-.56-2.992c.373-2.176 2.192-4.403 3.603-4.403.442 0 .646.374.646 1.156 0 1.377-.68 3.4-1.58 4.692-.34.493-.885.748-1.582.748-.527 0-.952-.119-1.394-.391zm6.34.221c0 1.802.765 2.771 2.176 2.771.935 0 1.955-.442 2.72-1.156 1.054-1.003 1.802-2.941 1.802-4.658 0-1.598-.85-2.567-2.26-2.567-1.769 0-4.438 1.7-4.438 5.61zm3.808-4.964c1.037 0 1.598.765 1.598 2.193 0 1.632-.527 3.434-1.275 4.335-.306.357-.748.561-1.275.561-.986 0-1.564-.765-1.564-2.108 0-1.921.663-4.012 1.496-4.692.221-.187.612-.289 1.02-.289zm3.961 5.032a15.07 15.07 0 01-.374 2.244c.646.306 1.224.459 1.82.459.832 0 1.614-.306 2.481-.986.867-.68 1.224-1.309 1.224-2.159 0-.918-.544-1.411-1.802-1.649l-.73-.136c-1.02-.187-1.344-.476-1.344-1.173 0-.901.765-1.598 1.734-1.598.697 0 1.343.306 1.615.765v.935h.391c.068-.595.136-1.054.323-1.921-.663-.323-1.139-.459-1.7-.459-.884 0-1.92.51-2.737 1.326-.442.459-.629.884-.629 1.496 0 .952.527 1.496 1.65 1.717l1.07.204c.748.136 1.02.442 1.02 1.105 0 1.105-.782 1.853-1.989 1.853a2.366 2.366 0 01-1.598-.595v-1.428z" stroke="#E2E2E2" stroke-width=".136" fill="#E2E2E2"/><path d="M82 14.322h.87c.927 0 1.356.06 1.391.202.036.095.06.322.048.44l-.048.762h.334l.32-1.951-1.082.011c-1.047.012-1.856.024-2.273.024-.44 0-1.202-.012-2.225-.024l-1.13-.011-.215 1.951h.345l.179-.714c.06-.262.142-.452.214-.535.071-.084.523-.155.964-.155h1.333L80 20.522c-.19 1.083-.214 1.118-.69 1.154l-.607.036-.048.333.679-.012c.476-.012.82-.024 1.011-.024.226 0 .595.012 1.06.024l.523.012.036-.333-.702-.036c-.31-.012-.429-.107-.429-.357 0-.107.012-.19.048-.416zm5.748-.512c-1.844 0-2.785 1.464-2.785 4.344 0 1.392.25 2.594.667 3.177a2.206 2.206 0 001.82.916c1.797 0 2.702-1.547 2.702-4.593 0-2.606-.774-3.844-2.404-3.844zm-.214.417c1.154 0 1.618 1.166 1.618 4.022 0 2.535-.452 3.582-1.547 3.582-1.154 0-1.642-1.202-1.642-4.106 0-2.51.44-3.498 1.57-3.498z" stroke="#E2E2E2" stroke-width=".095" fill="#E2E2E2"/><path d="M105.237 14.903V13.9h-4.08V9.854h-1.003V13.9h-4.08v1.003h4.08V19h1.003v-4.097zm6.963-.425c0-4.42 1.65-6.222 2.636-7.378l-.323-.442c-.97.867-3.774 3.128-3.774 7.82 0 1.819.425 3.536 1.24 5.066.596 1.139 1.14 1.802 2.534 3.111l.323-.357c-.782-.969-2.635-3.043-2.635-7.82zm8.445 2.89l-1.207-8.976c-.034-.374.034-.629.714-.646l.714-.034v-.476l-.697.017c-.629.017-1.105.034-1.411.034-.306 0-.782-.017-1.411-.034l-.697-.017v.476l.425.034c.748.051.884.187 1.003.816l1.496 10.574h.833l6.426-10.523c.425-.68.561-.799 1.054-.867l.306-.034v-.476l-.51.017c-.459.017-.85.034-1.122.034-.17 0-.629-.017-1.326-.034l-.782-.017v.476l.442.034c.646.051.969.221.969.544 0 .187-.068.374-.272.714z" stroke="#E2E2E2" stroke-width=".136" fill="#E2E2E2"/><path d="M132.782 14.322h.868c.929 0 1.357.06 1.393.202.035.095.06.322.047.44l-.047.762h.333l.321-1.951-1.083.011c-1.047.012-1.856.024-2.273.024-.44 0-1.202-.012-2.225-.024l-1.13-.011-.215 1.951h.345l.179-.714c.06-.262.143-.452.214-.535.072-.084.524-.155.964-.155h1.333l-1.024 6.2c-.19 1.083-.214 1.118-.69 1.154l-.607.036-.047.333.678-.012c.476-.012.821-.024 1.012-.024.226 0 .595.012 1.059.024l.523.012.036-.333-.702-.036c-.31-.012-.429-.107-.429-.357 0-.107.012-.19.048-.416z" stroke="#E2E2E2" stroke-width=".095" fill="#E2E2E2"/><path d="M137.289 6.658l-.323.442c.935 1.088 2.635 2.958 2.635 7.378 0 4.692-1.768 6.749-2.635 7.82l.323.357c.9-.85 3.774-3.264 3.774-8.16 0-4.709-2.805-6.97-3.774-7.837zm6.914 5.712l-.952 4.811c-.017.136-.22.782-.22 1.292 0 .425.186.68.51.68.594 0 1.19-.34 2.515-1.411l.527-.425-.17-.306-.765.527c-.493.34-.833.51-1.02.51-.153 0-.238-.136-.238-.34 0-.442.238-1.819.731-4.284l.221-1.054h1.82l.186-.85a17.23 17.23 0 01-1.87.102c.272-1.598.46-2.431.765-3.349l-.187-.255c-.34.204-.799.408-1.326.612l-.425 2.89c-.748.357-1.19.544-1.496.629l-.034.221zm18.893.731v-1.003h-9.163v1.003zm0 3.621v-1.003h-9.163v1.003zm9.177 2.465c.952 0 2.907-1.241 3.638-2.312.697-1.037 1.275-2.907 1.275-4.182 0-1.139-.39-1.887-1.003-1.887-.714 0-1.615.442-2.499 1.241-.697.595-1.037 1.037-1.649 2.04l.408-2.023a4.57 4.57 0 00.085-.748c0-.323-.136-.51-.374-.51-.357 0-1.003.357-2.26 1.258l-.477.34.12.34.543-.357c.476-.306.663-.391.816-.391.17 0 .29.153.29.391 0 .136-.035.476-.069.646l-.986 5.831c-.17 1.02-.493 2.567-.833 4.097l-.136.629.12.102a7.105 7.105 0 011.24-.289l.714-4.454c.357.119.731.238 1.037.238zm-.56-2.992c.373-2.176 2.192-4.403 3.603-4.403.442 0 .646.374.646 1.156 0 1.377-.68 3.4-1.58 4.692-.34.493-.885.748-1.582.748-.527 0-.952-.119-1.394-.391zm6.34.221c0 1.802.765 2.771 2.176 2.771.935 0 1.955-.442 2.72-1.156 1.054-1.003 1.802-2.941 1.802-4.658 0-1.598-.85-2.567-2.26-2.567-1.769 0-4.438 1.7-4.438 5.61zm3.808-4.964c1.037 0 1.598.765 1.598 2.193 0 1.632-.527 3.434-1.275 4.335-.306.357-.748.561-1.275.561-.986 0-1.564-.765-1.564-2.108 0-1.921.663-4.012 1.496-4.692.221-.187.612-.289 1.02-.289zm3.961 5.032a15.07 15.07 0 01-.374 2.244c.646.306 1.224.459 1.82.459.832 0 1.614-.306 2.481-.986.867-.68 1.224-1.309 1.224-2.159 0-.918-.544-1.411-1.802-1.649l-.73-.136c-1.02-.187-1.344-.476-1.344-1.173 0-.901.765-1.598 1.734-1.598.697 0 1.343.306 1.615.765v.935h.391c.068-.595.136-1.054.323-1.921-.663-.323-1.139-.459-1.7-.459-.884 0-1.92.51-2.737 1.326-.442.459-.629.884-.629 1.496 0 .952.527 1.496 1.65 1.717l1.07.204c.748.136 1.02.442 1.02 1.105 0 1.105-.782 1.853-1.989 1.853a2.366 2.366 0 01-1.598-.595v-1.428z" stroke="#E2E2E2" stroke-width=".136" fill="#E2E2E2"/><path d="M193.656 14.108l.654.024c.286.011.417.107.417.32l-.988 6.07c-.202 1.083-.214 1.118-.69 1.154l-.488.036-.048.333.5-.012c.488-.012.857-.024 1.071-.024.202 0 .548.012 1.024.024l.63.012.036-.333-.774-.036c-.309-.012-.428-.107-.428-.357 0-.107.012-.19.048-.416l1.166-6.605c.428-.071.619-.095.845-.095 1.214 0 1.797.524 1.797 1.63 0 1.285-.857 2.333-1.904 2.333-.262 0-.5-.06-.94-.226l.023.368c.44.215.679.274 1.024.274 1.535 0 2.844-1.392 2.844-3.01 0-1.202-.75-1.833-2.166-1.797h-3.618zm9.139-.298c-1.845 0-2.785 1.464-2.785 4.344 0 1.392.25 2.594.667 3.177a2.206 2.206 0 001.82.916c1.797 0 2.702-1.547 2.702-4.593 0-2.606-.774-3.844-2.404-3.844zm-.214.417c1.154 0 1.618 1.166 1.618 4.022 0 2.535-.452 3.582-1.547 3.582-1.154 0-1.642-1.202-1.642-4.106 0-2.51.44-3.498 1.57-3.498z" stroke="#E2E2E2" stroke-width=".095" fill="#E2E2E2"/><path d="M220.284 14.903V13.9h-4.08V9.854H215.2V13.9h-4.08v1.003h4.08V19h1.003v-4.097zm6.964-.425c0-4.42 1.649-6.222 2.635-7.378l-.323-.442c-.97.867-3.774 3.128-3.774 7.82 0 1.819.425 3.536 1.24 5.066.596 1.139 1.14 1.802 2.534 3.111l.323-.357c-.782-.969-2.635-3.043-2.635-7.82zm5.01-3.485c0 1.445.646 2.244 2.074 2.584l1.615.391c.918.221 1.377.816 1.377 1.785 0 1.615-1.207 2.737-2.958 2.737-.918 0-1.564-.204-2.312-.731v-1.683h-.51c-.102.935-.221 1.7-.408 2.584a5.8 5.8 0 002.635.646c2.635 0 4.896-1.989 4.896-4.284 0-1.343-.731-2.057-2.448-2.431l-1.105-.238c-1.122-.238-1.632-.867-1.632-1.989 0-1.479 1.139-2.55 2.703-2.55.833 0 1.394.221 1.904.765v1.292h.51c.068-.918.187-1.564.425-2.295-.765-.408-1.445-.578-2.244-.578-2.108 0-4.522 1.564-4.522 3.995z" stroke="#E2E2E2" stroke-width=".136" fill="#E2E2E2"/><path d="M241.609 14.108l.654.024c.286.011.417.107.417.32l-.988 6.07c-.202 1.083-.214 1.118-.69 1.154l-.488.036-.048.333.5-.012c.488-.012.857-.024 1.071-.024.203 0 .548.012 1.024.024l.63.012.036-.333-.773-.036c-.31-.012-.429-.107-.429-.357 0-.107.012-.19.048-.416l1.166-6.605c.428-.071.619-.095.845-.095 1.214 0 1.797.524 1.797 1.63 0 1.285-.857 2.333-1.904 2.333-.262 0-.5-.06-.94-.226l.023.368c.44.215.679.274 1.024.274 1.535 0 2.844-1.392 2.844-3.01 0-1.202-.75-1.833-2.166-1.797h-3.617z" stroke="#E2E2E2" stroke-width=".095" fill="#E2E2E2"/><path d="M254.013 19.051c1.224 0 2.057-.187 2.94-.629 2.653-1.36 4.285-3.927 4.285-6.749 0-1.666-.51-2.856-1.547-3.587-.782-.561-2.227-.867-3.842-.85l-3.468.051h-.17c-.153 0-.204 0-1.921-.051l-.051.476.9.034c.409.017.596.153.596.459 0 .238-.068.782-.153 1.292l-1.48 8.568c-.084.408-.51.442-.9.544l-.085.442 1.58-.051h.936c.595 0 1.802.051 2.38.051zm1.156-11.186c3.094 0 4.505 1.292 4.505 4.08 0 3.23-1.7 6.358-5.44 6.358-.748 0-1.581-.085-2.737-.255 0-.204.017-.323.068-.629l1.632-9.469c.39 0 1.377-.085 1.972-.085z" stroke="#E2E2E2" stroke-width=".136" fill="#E2E2E2"/><path d="M263.609 14.108l.654.024c.286.011.417.107.417.32l-.988 6.07c-.202 1.083-.214 1.118-.69 1.154l-.488.036-.048.333.5-.012c.488-.012.857-.024 1.071-.024.203 0 .548.012 1.024.024l.63.012.036-.333-.773-.036c-.31-.012-.429-.107-.429-.357 0-.107.012-.19.048-.416l1.166-6.605c.428-.071.619-.095.845-.095 1.214 0 1.797.524 1.797 1.63 0 1.285-.857 2.333-1.904 2.333-.262 0-.5-.06-.94-.226l.023.368c.44.215.679.274 1.024.274 1.535 0 2.844-1.392 2.844-3.01 0-1.202-.75-1.833-2.166-1.797h-3.617z" stroke="#E2E2E2" stroke-width=".095" fill="#E2E2E2"/><path d="M271.508 6.658l-.323.442c.935 1.088 2.635 2.958 2.635 7.378 0 4.692-1.768 6.749-2.635 7.82l.323.357c.9-.85 3.774-3.264 3.774-8.16 0-4.709-2.805-6.97-3.774-7.837zm6.914 5.712l-.952 4.811c-.017.136-.221.782-.221 1.292 0 .425.187.68.51.68.595 0 1.19-.34 2.516-1.411l.527-.425-.17-.306-.765.527c-.493.34-.833.51-1.02.51-.153 0-.238-.136-.238-.34 0-.442.238-1.819.73-4.284l.222-1.054h1.819l.187-.85a17.23 17.23 0 01-1.87.102c.272-1.598.459-2.431.765-3.349l-.187-.255c-.34.204-.8.408-1.326.612l-.425 2.89c-.748.357-1.19.544-1.496.629l-.034.221z" stroke="#E2E2E2" stroke-width=".136" fill="#E2E2E2"/></svg>