<svg xmlns="http://www.w3.org/2000/svg" width="165.547" height="26.391" style="width:165.546875px;height:26.390625px;background:0 0" font-family="Asana-Math,Asana"><path d="M4.992 19.187c.952 0 2.907-1.241 3.638-2.312.697-1.037 1.275-2.907 1.275-4.182 0-1.139-.391-1.887-1.003-1.887-.714 0-1.615.442-2.499 1.241-.697.595-1.037 1.037-1.649 2.04l.408-2.023a4.57 4.57 0 00.085-.748c0-.323-.136-.51-.374-.51-.357 0-1.003.357-2.261 1.258l-.476.34.119.34.544-.357c.476-.306.663-.391.816-.391.17 0 .289.153.289.391 0 .136-.034.476-.068.646l-.986 5.831c-.17 1.02-.493 2.567-.833 4.097l-.136.629.119.102a7.105 7.105 0 011.241-.289l.714-4.454c.357.119.731.238 1.037.238zm-.561-2.992c.374-2.176 2.193-4.403 3.604-4.403.442 0 .646.374.646 1.156 0 1.377-.68 3.4-1.581 4.692-.34.493-.884.748-1.581.748-.527 0-.952-.119-1.394-.391zm6.341.221c0 1.802.765 2.771 2.176 2.771.935 0 1.955-.442 2.72-1.156 1.054-1.003 1.802-2.941 1.802-4.658 0-1.598-.85-2.567-2.261-2.567-1.768 0-4.437 1.7-4.437 5.61zm3.808-4.964c1.037 0 1.598.765 1.598 2.193 0 1.632-.527 3.434-1.275 4.335-.306.357-.748.561-1.275.561-.986 0-1.564-.765-1.564-2.108 0-1.921.663-4.012 1.496-4.692.221-.187.612-.289 1.02-.289zm3.961 5.032a15.07 15.07 0 01-.374 2.244c.646.306 1.224.459 1.819.459.833 0 1.615-.306 2.482-.986.867-.68 1.224-1.309 1.224-2.159 0-.918-.544-1.411-1.802-1.649l-.731-.136c-1.02-.187-1.343-.476-1.343-1.173 0-.901.765-1.598 1.734-1.598.697 0 1.343.306 1.615.765v.935h.391c.068-.595.136-1.054.323-1.921-.663-.323-1.139-.459-1.7-.459-.884 0-1.921.51-2.737 1.326-.442.459-.629.884-.629 1.496 0 .952.527 1.496 1.649 1.717l1.071.204c.748.136 1.02.442 1.02 1.105 0 1.105-.782 1.853-1.989 1.853a2.366 2.366 0 01-1.598-.595v-1.428z" stroke="#E2E2E2" stroke-width=".136" fill="#E2E2E2"/><path d="M26.41 16.404c0 1.012.452 1.571 1.452 1.81l1.13.273c.643.155.964.571.964 1.25 0 1.13-.845 1.915-2.07 1.915-.643 0-1.095-.142-1.619-.511v-1.178h-.357c-.071.654-.154 1.19-.285 1.808a4.06 4.06 0 001.844.453c1.845 0 3.427-1.393 3.427-3 0-.94-.511-1.44-1.713-1.7l-.774-.168c-.785-.166-1.142-.606-1.142-1.392 0-1.035.797-1.785 1.892-1.785.583 0 .976.155 1.333.536v.904h.357c.048-.643.13-1.095.297-1.606a3.156 3.156 0 00-1.57-.405c-1.476 0-3.166 1.095-3.166 2.796zm9.96-2.082h.87c.927 0 1.356.06 1.391.202.036.095.06.322.048.44l-.048.762h.334l.321-1.951-1.083.011c-1.047.012-1.856.024-2.273.024-.44 0-1.202-.012-2.225-.024l-1.13-.011-.215 1.951h.345l.179-.714c.06-.262.143-.452.214-.535.071-.084.524-.155.964-.155h1.333l-1.024 6.2c-.19 1.083-.214 1.118-.69 1.154l-.607.036-.047.333.678-.012c.476-.012.821-.024 1.011-.024.226 0 .595.012 1.06.024l.523.012.036-.333-.702-.036c-.31-.012-.429-.107-.429-.357 0-.107.012-.19.048-.416zm5.748-.512c-1.844 0-2.784 1.464-2.784 4.344 0 1.392.25 2.594.666 3.177a2.206 2.206 0 001.82.916c1.798 0 2.702-1.547 2.702-4.593 0-2.606-.773-3.844-2.404-3.844zm-.214.417c1.154 0 1.618 1.166 1.618 4.022 0 2.535-.452 3.582-1.547 3.582-1.154 0-1.642-1.202-1.642-4.106 0-2.51.44-3.498 1.571-3.498z" stroke="#E2E2E2" stroke-width=".095" fill="#E2E2E2"/><path d="M58.779 14.869v-.952H50.21v.952zm8.723-7.582c-2.635 0-3.978 2.091-3.978 6.205 0 1.989.357 3.706.952 4.539.595.833 1.547 1.309 2.601 1.309 2.567 0 3.86-2.21 3.86-6.562 0-3.723-1.106-5.491-3.435-5.491zm-.306.595c1.65 0 2.312 1.666 2.312 5.746 0 3.621-.646 5.117-2.21 5.117-1.649 0-2.346-1.717-2.346-5.865 0-3.587.63-4.998 2.244-4.998zm19.681 5.219v-1.003h-9.163v1.003zm0 3.621v-1.003h-9.163v1.003zm8.667-2.244c0-4.42 1.65-6.222 2.636-7.378l-.324-.442c-.968.867-3.773 3.128-3.773 7.82 0 1.819.425 3.536 1.24 5.066.596 1.139 1.14 1.802 2.534 3.111l.323-.357c-.783-.969-2.636-3.043-2.636-7.82zm5.011-3.485c0 1.445.646 2.244 2.074 2.584l1.615.391c.918.221 1.377.816 1.377 1.785 0 1.615-1.207 2.737-2.958 2.737-.918 0-1.564-.204-2.312-.731v-1.683h-.51c-.102.935-.221 1.7-.408 2.584a5.8 5.8 0 002.635.646c2.635 0 4.896-1.989 4.896-4.284 0-1.343-.731-2.057-2.448-2.431l-1.105-.238c-1.122-.238-1.632-.867-1.632-1.989 0-1.479 1.139-2.55 2.703-2.55.833 0 1.394.221 1.904.765v1.292h.51c.068-.918.187-1.564.425-2.295-.765-.408-1.445-.578-2.244-.578-2.108 0-4.522 1.564-4.522 3.995z" stroke="#E2E2E2" stroke-width=".136" fill="#E2E2E2"/><path d="M109.906 14.108l.654.024c.286.011.417.107.417.32l-.988 6.07c-.202 1.083-.214 1.118-.69 1.154l-.488.036-.048.333.5-.012c.488-.012.857-.024 1.071-.024.202 0 .548.012 1.024.024l.63.012.036-.333-.774-.036c-.309-.012-.428-.107-.428-.357 0-.107.012-.19.048-.416l1.166-6.605c.428-.071.619-.095.845-.095 1.214 0 1.797.524 1.797 1.63 0 1.285-.857 2.333-1.904 2.333-.262 0-.5-.06-.94-.226l.023.368c.44.215.679.274 1.024.274 1.535 0 2.844-1.392 2.844-3.01 0-1.202-.75-1.833-2.166-1.797h-3.618z" stroke="#E2E2E2" stroke-width=".095" fill="#E2E2E2"/><path d="M129.763 14.869v-.952h-8.568v.952zm6.089-3.876c0 1.445.646 2.244 2.074 2.584l1.615.391c.918.221 1.377.816 1.377 1.785 0 1.615-1.207 2.737-2.958 2.737-.918 0-1.564-.204-2.312-.731v-1.683h-.51c-.102.935-.221 1.7-.408 2.584a5.8 5.8 0 002.635.646c2.635 0 4.896-1.989 4.896-4.284 0-1.343-.731-2.057-2.448-2.431l-1.105-.238c-1.122-.238-1.632-.867-1.632-1.989 0-1.479 1.139-2.55 2.703-2.55.833 0 1.394.221 1.904.765v1.292h.51c.068-.918.187-1.564.425-2.295-.765-.408-1.445-.578-2.244-.578-2.108 0-4.522 1.564-4.522 3.995z" stroke="#E2E2E2" stroke-width=".136" fill="#E2E2E2"/><path d="M148.594 14.322h.869c.928 0 1.356.06 1.392.202.036.095.06.322.048.44l-.048.762h.333l.322-1.951-1.083.011c-1.047.012-1.857.024-2.273.024-.44 0-1.202-.012-2.225-.024l-1.131-.011-.214 1.951h.345l.178-.714c.06-.262.143-.452.215-.535.071-.084.523-.155.964-.155h1.332l-1.023 6.2c-.19 1.083-.214 1.118-.69 1.154l-.607.036-.048.333.679-.012c.476-.012.82-.024 1.011-.024.226 0 .595.012 1.06.024l.523.012.035-.333-.702-.036c-.31-.012-.428-.107-.428-.357 0-.107.012-.19.048-.416z" stroke="#E2E2E2" stroke-width=".095" fill="#E2E2E2"/><path d="M153.101 6.658l-.323.442c.935 1.088 2.635 2.958 2.635 7.378 0 4.692-1.768 6.749-2.635 7.82l.323.357c.901-.85 3.774-3.264 3.774-8.16 0-4.709-2.805-6.97-3.774-7.837zm6.915 5.712l-.952 4.811c-.017.136-.221.782-.221 1.292 0 .425.187.68.51.68.595 0 1.19-.34 2.516-1.411l.527-.425-.17-.306-.765.527c-.493.34-.833.51-1.02.51-.153 0-.238-.136-.238-.34 0-.442.238-1.819.73-4.284l.222-1.054h1.819l.187-.85a17.23 17.23 0 01-1.87.102c.272-1.598.459-2.431.765-3.349l-.187-.255c-.34.204-.8.408-1.326.612l-.425 2.89c-.748.357-1.19.544-1.496.629l-.034.221z" stroke="#E2E2E2" stroke-width=".136" fill="#E2E2E2"/></svg>